<?xml version="1.0" encoding="UTF-8"?>
<!DOCTYPE svg PUBLIC "-//W3C//DTD SVG 1.1//EN" "http://www.w3.org/Graphics/SVG/1.1/DTD/svg11.dtd">
<svg xmlns="http://www.w3.org/2000/svg" version="1.1" width="2000px" height="730px" style="shape-rendering:geometricPrecision; text-rendering:geometricPrecision; image-rendering:optimizeQuality; fill-rule:evenodd; clip-rule:evenodd" xmlns:xlink="http://www.w3.org/1999/xlink">
<g><path style="opacity:1" fill="#040404" d="M 256.5,81.5 C 259.968,82.1009 263.301,83.1009 266.5,84.5C 267.78,85.9313 269.447,86.5979 271.5,86.5C 278.484,89.3255 285.151,92.6588 291.5,96.5C 292.035,98.4456 293.368,99.4456 295.5,99.5C 299.707,101.435 303.373,104.102 306.5,107.5C 307.262,109.262 308.596,110.262 310.5,110.5C 314.167,113.5 317.5,116.833 320.5,120.5C 321.08,122.749 322.413,124.415 324.5,125.5C 325.5,125.833 326.167,126.5 326.5,127.5C 326.738,129.404 327.738,130.738 329.5,131.5C 329.427,133.027 330.094,134.027 331.5,134.5C 332.974,135.436 333.974,136.77 334.5,138.5C 334.427,140.027 335.094,141.027 336.5,141.5C 336.427,143.027 337.094,144.027 338.5,144.5C 339.674,145.514 340.34,146.847 340.5,148.5C 340.427,150.027 341.094,151.027 342.5,151.5C 345.341,155.849 347.674,160.516 349.5,165.5C 349.402,167.553 350.069,169.22 351.5,170.5C 352.404,171.209 352.737,172.209 352.5,173.5C 352.12,175.698 352.787,177.365 354.5,178.5C 354.5,178.833 354.5,179.167 354.5,179.5C 354.41,182.152 355.076,184.485 356.5,186.5C 356.41,189.152 357.076,191.485 358.5,193.5C 359.434,194.568 359.768,195.901 359.5,197.5C 359.42,200.781 360.087,203.781 361.5,206.5C 361.302,211.75 361.969,216.75 363.5,221.5C 364.328,227.319 364.828,233.319 365,239.5C 365.667,305.5 365.667,371.5 365,437.5C 364.802,439.382 364.302,441.048 363.5,442.5C 361.992,444.181 360.992,446.181 360.5,448.5C 359.094,448.973 358.427,449.973 358.5,451.5C 355.45,455.362 351.45,457.695 346.5,458.5C 341.463,458.587 336.463,458.254 331.5,457.5C 329.847,457.34 328.514,456.674 327.5,455.5C 326.738,453.738 325.404,452.738 323.5,452.5C 318.437,447.657 316.104,441.657 316.5,434.5C 316.667,366.499 316.5,298.499 316,230.5C 315.802,228.618 315.302,226.952 314.5,225.5C 314.5,224.833 314.5,224.167 314.5,223.5C 314.425,216.786 313.092,210.452 310.5,204.5C 310.472,201.084 309.472,198.084 307.5,195.5C 301.41,179.073 292.077,164.739 279.5,152.5C 278.089,150.086 276.089,148.419 273.5,147.5C 272.738,145.738 271.404,144.738 269.5,144.5C 267.938,144.267 266.605,143.6 265.5,142.5C 265.027,141.094 264.027,140.427 262.5,140.5C 255.394,136.947 248.061,133.947 240.5,131.5C 238.562,129.837 236.228,129.171 233.5,129.5C 233.167,129.5 232.833,129.5 232.5,129.5C 229.493,127.825 226.16,127.159 222.5,127.5C 222.167,127.5 221.833,127.5 221.5,127.5C 215.559,126.089 209.392,125.423 203,125.5C 199.317,125.501 195.817,125.835 192.5,126.5C 184.071,126.651 176.071,128.318 168.5,131.5C 161.388,134.222 154.388,137.222 147.5,140.5C 145.973,140.427 144.973,141.094 144.5,142.5C 128.051,153.283 115.051,167.283 105.5,184.5C 104.069,185.78 103.402,187.447 103.5,189.5C 101.733,191.792 100.733,194.458 100.5,197.5C 98.4249,201.474 97.4249,205.808 97.5,210.5C 97.5,210.833 97.5,211.167 97.5,211.5C 96.6981,212.952 96.1981,214.618 96,216.5C 95.5,290.833 95.3333,365.166 95.5,439.5C 95.5,439.833 95.5,440.167 95.5,440.5C 94.2616,442.214 93.595,444.214 93.5,446.5C 90.9038,453.423 85.9038,457.423 78.5,458.5C 73.1301,458.608 67.7968,458.275 62.5,457.5C 60.847,457.34 59.5137,456.674 58.5,455.5C 57.7377,453.738 56.4044,452.738 54.5,452.5C 52.0499,450.371 50.3833,447.704 49.5,444.5C 49.405,442.214 48.7384,440.214 47.5,438.5C 47.1672,324.332 47.5005,210.332 48.5,96.5C 50.0075,94.8185 51.0075,92.8185 51.5,90.5C 52.9063,90.0269 53.573,89.0269 53.5,87.5C 54.8333,86.8333 55.8333,85.8333 56.5,84.5C 58.3356,82.412 60.6689,81.0787 63.5,80.5C 69.1667,80.5 74.8333,80.5 80.5,80.5C 86.0362,82.0399 90.0362,85.3732 92.5,90.5C 92.6596,92.153 93.3263,93.4863 94.5,94.5C 95.4511,95.9187 95.7845,97.5853 95.5,99.5C 95.1681,109.522 95.5015,119.522 96.5,129.5C 97.2975,129.043 97.6309,128.376 97.5,127.5C 98.1667,126.167 99.1667,125.167 100.5,124.5C 103.243,122.761 105.243,120.427 106.5,117.5C 106.833,116.5 107.5,115.833 108.5,115.5C 111.089,114.581 113.089,112.914 114.5,110.5C 117.089,109.581 119.089,107.914 120.5,105.5C 121.262,103.738 122.596,102.738 124.5,102.5C 126.404,102.262 127.738,101.262 128.5,99.5C 130.027,99.573 131.027,98.9063 131.5,97.5C 133.027,97.573 134.027,96.9063 134.5,95.5C 135.514,94.3263 136.847,93.6596 138.5,93.5C 140.027,93.573 141.027,92.9063 141.5,91.5C 144.515,89.3256 147.849,87.6589 151.5,86.5C 154.716,86.6545 157.383,85.6545 159.5,83.5C 163.162,83.2766 166.495,82.2766 169.5,80.5C 172.152,80.5905 174.485,79.9238 176.5,78.5C 179.544,76.9886 182.878,76.322 186.5,76.5C 210.137,74.128 233.47,75.7947 256.5,81.5 Z"/></g>
<g><path style="opacity:0.369" fill="#acacac" d="M 256.5,81.5 C 233.47,75.7947 210.137,74.128 186.5,76.5C 206.098,73.5729 225.765,74.0729 245.5,78C 249.427,78.7244 253.094,79.891 256.5,81.5 Z"/></g>
<g><path style="opacity:0.922" fill="#636363" d="M 80.5,80.5 C 74.8333,80.5 69.1667,80.5 63.5,80.5C 69.1667,77.8333 74.8333,77.8333 80.5,80.5 Z"/></g>
<g><path style="opacity:0.757" fill="#787878" d="M 176.5,78.5 C 174.485,79.9238 172.152,80.5905 169.5,80.5C 171.515,79.0762 173.848,78.4095 176.5,78.5 Z"/></g>
<g><path style="opacity:0.792" fill="#6e6e6e" d="M 169.5,80.5 C 166.495,82.2766 163.162,83.2766 159.5,83.5C 162.505,81.7234 165.838,80.7234 169.5,80.5 Z"/></g>
<g><path style="opacity:0.918" fill="#656565" d="M 159.5,83.5 C 157.383,85.6545 154.716,86.6545 151.5,86.5C 153.848,84.9028 156.514,83.9028 159.5,83.5 Z"/></g>
<g><path style="opacity:0.204" fill="#c7c7c7" d="M 266.5,84.5 C 268.553,84.4021 270.22,85.0687 271.5,86.5C 269.447,86.5979 267.78,85.9313 266.5,84.5 Z"/></g>
<g><path style="opacity:0.4" fill="#b2b2b2" d="M 56.5,84.5 C 55.8333,85.8333 54.8333,86.8333 53.5,87.5C 53.5,85.5 54.5,84.5 56.5,84.5 Z"/></g>
<g><path style="opacity:0.525" fill="#878787" d="M 53.5,87.5 C 53.573,89.0269 52.9063,90.0269 51.5,90.5C 51.427,88.9731 52.0937,87.9731 53.5,87.5 Z"/></g>
<g><path style="opacity:0.165" fill="#c4c4c4" d="M 51.5,90.5 C 51.0075,92.8185 50.0075,94.8185 48.5,96.5C 48.461,93.911 49.461,91.911 51.5,90.5 Z"/></g>
<g><path style="opacity:0.106" fill="#c5c5c5" d="M 92.5,90.5 C 94.1042,91.287 94.7709,92.6203 94.5,94.5C 93.3263,93.4863 92.6596,92.153 92.5,90.5 Z"/></g>
<g><path style="opacity:0.757" fill="#7c7c7c" d="M 141.5,91.5 C 141.027,92.9063 140.027,93.573 138.5,93.5C 138.973,92.0937 139.973,91.427 141.5,91.5 Z"/></g>
<g><path style="opacity:0.675" fill="#949494" d="M 134.5,95.5 C 134.027,96.9063 133.027,97.573 131.5,97.5C 131.973,96.0937 132.973,95.427 134.5,95.5 Z"/></g>
<g><path style="opacity:0.933" fill="#797979" d="M 291.5,96.5 C 293.23,97.0256 294.564,98.0256 295.5,99.5C 293.368,99.4456 292.035,98.4456 291.5,96.5 Z"/></g>
<g><path style="opacity:0.698" fill="#898989" d="M 131.5,97.5 C 131.027,98.9063 130.027,99.573 128.5,99.5C 128.973,98.0937 129.973,97.427 131.5,97.5 Z"/></g>
<g><path style="opacity:0.659" fill="#7f7f7f" d="M 128.5,99.5 C 127.738,101.262 126.404,102.262 124.5,102.5C 125.262,100.738 126.596,99.7376 128.5,99.5 Z"/></g>
<g><path style="opacity:0.557" fill="#777777" d="M 95.5,99.5 C 96.1667,108.833 96.8333,118.167 97.5,127.5C 97.6309,128.376 97.2975,129.043 96.5,129.5C 95.5015,119.522 95.1681,109.522 95.5,99.5 Z"/></g>
<g><path style="opacity:0.004" fill="#c7c7c7" d="M 306.5,107.5 C 308.404,107.738 309.738,108.738 310.5,110.5C 308.596,110.262 307.262,109.262 306.5,107.5 Z"/></g>
<g><path style="opacity:0.898" fill="#5b5b5b" d="M 120.5,105.5 C 119.089,107.914 117.089,109.581 114.5,110.5C 115.911,108.086 117.911,106.419 120.5,105.5 Z"/></g>
<g><path style="opacity:0.753" fill="#7d7d7d" d="M 114.5,110.5 C 113.089,112.914 111.089,114.581 108.5,115.5C 109.911,113.086 111.911,111.419 114.5,110.5 Z"/></g>
<g><path style="opacity:0.749" fill="#818181" d="M 106.5,117.5 C 105.243,120.427 103.243,122.761 100.5,124.5C 101.757,121.573 103.757,119.239 106.5,117.5 Z"/></g>
<g><path style="opacity:0.788" fill="#919191" d="M 320.5,120.5 C 322.587,121.585 323.92,123.251 324.5,125.5C 322.413,124.415 321.08,122.749 320.5,120.5 Z"/></g>
<g><path style="opacity:0.431" fill="#929292" d="M 192.5,126.5 C 195.817,125.835 199.317,125.501 203,125.5C 209.392,125.423 215.559,126.089 221.5,127.5C 213.181,126.876 204.848,126.543 196.5,126.5C 195.167,126.5 193.833,126.5 192.5,126.5 Z"/></g>
<g><path style="opacity:0.122" fill="#c5c5c5" d="M 192.5,126.5 C 193.833,126.5 195.167,126.5 196.5,126.5C 187.255,127.931 177.922,129.598 168.5,131.5C 176.071,128.318 184.071,126.651 192.5,126.5 Z"/></g>
<g><path style="opacity:0.082" fill="#d4d4d4" d="M 222.5,127.5 C 226.16,127.159 229.493,127.825 232.5,129.5C 228.96,129.247 225.627,128.581 222.5,127.5 Z"/></g>
<g><path style="opacity:0.69" fill="#a7a7a7" d="M 233.5,129.5 C 236.228,129.171 238.562,129.837 240.5,131.5C 237.933,131.279 235.599,130.612 233.5,129.5 Z"/></g>
<g><path style="opacity:0.549" fill="#989898" d="M 326.5,127.5 C 328.262,128.262 329.262,129.596 329.5,131.5C 327.738,130.738 326.738,129.404 326.5,127.5 Z"/></g>
<g><path style="opacity:0.588" fill="#828282" d="M 329.5,131.5 C 330.906,131.973 331.573,132.973 331.5,134.5C 330.094,134.027 329.427,133.027 329.5,131.5 Z"/></g>
<g><path style="opacity:0.404" fill="#a3a3a3" d="M 334.5,138.5 C 335.906,138.973 336.573,139.973 336.5,141.5C 335.094,141.027 334.427,140.027 334.5,138.5 Z"/></g>
<g><path style="opacity:0.012" fill="#dbdbdb" d="M 147.5,140.5 C 147.027,141.906 146.027,142.573 144.5,142.5C 144.973,141.094 145.973,140.427 147.5,140.5 Z"/></g>
<g><path style="opacity:0.184" fill="#c6c6c6" d="M 262.5,140.5 C 264.027,140.427 265.027,141.094 265.5,142.5C 263.973,142.573 262.973,141.906 262.5,140.5 Z"/></g>
<g><path style="opacity:0.318" fill="#b0b0b0" d="M 336.5,141.5 C 337.906,141.973 338.573,142.973 338.5,144.5C 337.094,144.027 336.427,143.027 336.5,141.5 Z"/></g>
<g><path style="opacity:0.69" fill="#787878" d="M 269.5,144.5 C 271.404,144.738 272.738,145.738 273.5,147.5C 271.596,147.262 270.262,146.262 269.5,144.5 Z"/></g>
<g><path style="opacity:0.62" fill="#929292" d="M 273.5,147.5 C 276.089,148.419 278.089,150.086 279.5,152.5C 276.911,151.581 274.911,149.914 273.5,147.5 Z"/></g>
<g><path style="opacity:0.396" fill="#9b9b9b" d="M 340.5,148.5 C 341.906,148.973 342.573,149.973 342.5,151.5C 341.094,151.027 340.427,150.027 340.5,148.5 Z"/></g>
<g><path style="opacity:1" fill="#050505" d="M 731.5,179.5 C 731.427,181.027 732.094,182.027 733.5,182.5C 733.427,184.027 734.094,185.027 735.5,185.5C 735.427,187.027 736.094,188.027 737.5,188.5C 737.427,190.027 738.094,191.027 739.5,191.5C 739.427,193.027 740.094,194.027 741.5,194.5C 741.427,196.027 742.094,197.027 743.5,197.5C 743.427,199.027 744.094,200.027 745.5,200.5C 745.427,202.027 746.094,203.027 747.5,203.5C 750.313,206.446 752.646,209.779 754.5,213.5C 754.427,215.027 755.094,216.027 756.5,216.5C 756.427,218.027 757.094,219.027 758.5,219.5C 758.427,221.027 759.094,222.027 760.5,222.5C 760.427,224.027 761.094,225.027 762.5,225.5C 762.427,227.027 763.094,228.027 764.5,228.5C 764.427,230.027 765.094,231.027 766.5,231.5C 766.427,233.027 767.094,234.027 768.5,234.5C 768.427,236.027 769.094,237.027 770.5,237.5C 773.313,240.446 775.646,243.779 777.5,247.5C 777.427,249.027 778.094,250.027 779.5,250.5C 779.427,252.027 780.094,253.027 781.5,253.5C 781.427,255.027 782.094,256.027 783.5,256.5C 783.427,258.027 784.094,259.027 785.5,259.5C 785.427,261.027 786.094,262.027 787.5,262.5C 787.427,264.027 788.094,265.027 789.5,265.5C 789.427,267.027 790.094,268.027 791.5,268.5C 791.427,270.027 792.094,271.027 793.5,271.5C 796.313,274.446 798.646,277.779 800.5,281.5C 800.427,283.027 801.094,284.027 802.5,284.5C 802.427,286.027 803.094,287.027 804.5,287.5C 804.427,289.027 805.094,290.027 806.5,290.5C 806.427,292.027 807.094,293.027 808.5,293.5C 808.427,295.027 809.094,296.027 810.5,296.5C 810.427,298.027 811.094,299.027 812.5,299.5C 812.427,301.027 813.094,302.027 814.5,302.5C 814.427,304.027 815.094,305.027 816.5,305.5C 819.313,308.446 821.646,311.779 823.5,315.5C 823.427,317.027 824.094,318.027 825.5,318.5C 825.427,320.027 826.094,321.027 827.5,321.5C 827.427,323.027 828.094,324.027 829.5,324.5C 829.427,326.027 830.094,327.027 831.5,327.5C 831.427,329.027 832.094,330.027 833.5,330.5C 833.427,332.027 834.094,333.027 835.5,333.5C 835.427,335.027 836.094,336.027 837.5,336.5C 837.427,338.027 838.094,339.027 839.5,339.5C 842.313,342.446 844.646,345.779 846.5,349.5C 846.427,351.027 847.094,352.027 848.5,352.5C 848.427,354.027 849.094,355.027 850.5,355.5C 850.427,357.027 851.094,358.027 852.5,358.5C 852.427,360.027 853.094,361.027 854.5,361.5C 854.427,363.027 855.094,364.027 856.5,364.5C 856.427,366.027 857.094,367.027 858.5,367.5C 858.427,369.027 859.094,370.027 860.5,370.5C 860.427,372.027 861.094,373.027 862.5,373.5C 864.522,375.531 866.189,377.865 867.5,380.5C 867.427,382.027 868.094,383.027 869.5,383.5C 869.427,385.027 870.094,386.027 871.5,386.5C 871.427,388.027 872.094,389.027 873.5,389.5C 873.427,391.027 874.094,392.027 875.5,392.5C 875.427,394.027 876.094,395.027 877.5,395.5C 877.427,397.027 878.094,398.027 879.5,398.5C 879.427,400.027 880.094,401.027 881.5,401.5C 881.427,403.027 882.094,404.027 883.5,404.5C 886.313,407.446 888.646,410.779 890.5,414.5C 890.427,416.027 891.094,417.027 892.5,417.5C 892.427,419.027 893.094,420.027 894.5,420.5C 895.333,338.668 895.833,256.668 896,174.5C 901.724,160.056 911.891,155.556 926.5,161C 928.093,161.949 929.426,163.115 930.5,164.5C 930.427,166.027 931.094,167.027 932.5,167.5C 934.163,169.493 935.33,171.826 936,174.5C 936.667,278.833 936.667,383.167 936,487.5C 929.497,503.076 918.664,506.909 903.5,499C 900.547,496.248 898.214,493.082 896.5,489.5C 896.446,487.368 895.446,486.035 893.5,485.5C 892.662,485.158 892.328,484.492 892.5,483.5C 892.446,481.368 891.446,480.035 889.5,479.5C 883.808,471.795 878.474,463.795 873.5,455.5C 873.446,453.368 872.446,452.035 870.5,451.5C 869.662,451.158 869.328,450.492 869.5,449.5C 869.446,447.368 868.446,446.035 866.5,445.5C 860.808,437.795 855.474,429.795 850.5,421.5C 850.446,419.368 849.446,418.035 847.5,417.5C 846.662,417.158 846.328,416.492 846.5,415.5C 846.446,413.368 845.446,412.035 843.5,411.5C 837.808,403.795 832.474,395.795 827.5,387.5C 827.446,385.368 826.446,384.035 824.5,383.5C 823.662,383.158 823.328,382.492 823.5,381.5C 823.446,379.368 822.446,378.035 820.5,377.5C 814.808,369.795 809.474,361.795 804.5,353.5C 804.446,351.368 803.446,350.035 801.5,349.5C 800.662,349.158 800.328,348.492 800.5,347.5C 800.446,345.368 799.446,344.035 797.5,343.5C 791.808,335.795 786.474,327.795 781.5,319.5C 781.446,317.368 780.446,316.035 778.5,315.5C 777.662,315.158 777.328,314.492 777.5,313.5C 777.446,311.368 776.446,310.035 774.5,309.5C 768.808,301.795 763.474,293.795 758.5,285.5C 758.446,283.368 757.446,282.035 755.5,281.5C 754.662,281.158 754.328,280.492 754.5,279.5C 754.446,277.368 753.446,276.035 751.5,275.5C 745.255,266.68 739.255,257.68 733.5,248.5C 733.446,246.368 732.446,245.035 730.5,244.5C 729.662,244.158 729.328,243.492 729.5,242.5C 729.217,241.711 728.717,241.044 728,240.5C 727.5,321.833 727.333,403.166 727.5,484.5C 727.55,489.045 725.883,492.711 722.5,495.5C 721.167,496.167 720.167,497.167 719.5,498.5C 716.314,501.897 712.314,503.23 707.5,502.5C 702.686,503.23 698.686,501.897 695.5,498.5C 695.027,497.094 694.027,496.427 692.5,496.5C 689.638,493.443 687.805,489.776 687,485.5C 686.333,382.5 686.333,279.5 687,176.5C 692.03,159.903 702.53,155.069 718.5,162C 723.821,167.147 728.155,172.98 731.5,179.5 Z"/></g>
<g><path style="opacity:1" fill="#0b0b0b" d="M 1321.5,501.5 C 1319.49,500.076 1317.15,499.41 1314.5,499.5C 1311.28,499.104 1308.61,497.771 1306.5,495.5C 1306.03,494.094 1305.03,493.427 1303.5,493.5C 1303.03,492.094 1302.03,491.427 1300.5,491.5C 1294.74,487.08 1290.08,481.747 1286.5,475.5C 1286.71,473.821 1286.05,472.821 1284.5,472.5C 1277.56,459.395 1273.72,445.395 1273,430.5C 1272.33,345.833 1272.33,261.167 1273,176.5C 1275.25,165.588 1281.91,159.588 1293,158.5C 1304.09,159.588 1310.75,165.588 1313,176.5C 1313.02,263.53 1313.68,350.53 1315,437.5C 1316.83,444.659 1320.33,450.826 1325.5,456C 1327.71,457.044 1330.05,457.71 1332.5,458C 1356.76,456.989 1365.26,468.155 1358,491.5C 1356.17,494.667 1353.67,497.167 1350.5,499C 1340.84,503.136 1331.18,503.969 1321.5,501.5 Z"/></g>
<g><path style="opacity:1" fill="#0b0b0b" d="M 1439.5,501.5 C 1437.49,500.076 1435.15,499.41 1432.5,499.5C 1429.28,499.104 1426.61,497.771 1424.5,495.5C 1424.03,494.094 1423.03,493.427 1421.5,493.5C 1421.03,492.094 1420.03,491.427 1418.5,491.5C 1412.74,487.08 1408.08,481.747 1404.5,475.5C 1404.71,473.821 1404.05,472.821 1402.5,472.5C 1395.56,459.395 1391.72,445.395 1391,430.5C 1390.33,345.833 1390.33,261.167 1391,176.5C 1393.25,165.588 1399.91,159.588 1411,158.5C 1422.09,159.588 1428.75,165.588 1431,176.5C 1431.02,263.53 1431.68,350.53 1433,437.5C 1434.83,444.659 1438.33,450.826 1443.5,456C 1445.71,457.044 1448.05,457.71 1450.5,458C 1474.76,456.989 1483.26,468.155 1476,491.5C 1474.17,494.667 1471.67,497.167 1468.5,499C 1458.84,503.136 1449.18,503.969 1439.5,501.5 Z"/></g>
<g><path style="opacity:0.455" fill="#a1a1a1" d="M 930.5,164.5 C 931.906,164.973 932.573,165.973 932.5,167.5C 931.094,167.027 930.427,166.027 930.5,164.5 Z"/></g>
<g><path style="opacity:0.071" fill="#d9d9d9" d="M 349.5,165.5 C 350.931,166.78 351.598,168.447 351.5,170.5C 350.069,169.22 349.402,167.553 349.5,165.5 Z"/></g>
<g><path style="opacity:0.847" fill="#828282" d="M 352.5,173.5 C 353.537,174.93 354.204,176.597 354.5,178.5C 352.787,177.365 352.12,175.698 352.5,173.5 Z"/></g>
<g><path style="opacity:0.404" fill="#a1a1a1" d="M 731.5,179.5 C 732.906,179.973 733.573,180.973 733.5,182.5C 732.094,182.027 731.427,181.027 731.5,179.5 Z"/></g>
<g><path style="opacity:0.78" fill="#818181" d="M 354.5,179.5 C 355.924,181.515 356.59,183.848 356.5,186.5C 355.076,184.485 354.41,182.152 354.5,179.5 Z"/></g>
<g><path style="opacity:0.439" fill="#9b9b9b" d="M 733.5,182.5 C 734.906,182.973 735.573,183.973 735.5,185.5C 734.094,185.027 733.427,184.027 733.5,182.5 Z"/></g>
<g><path style="opacity:0.259" fill="#b5b5b5" d="M 105.5,184.5 C 105.598,186.553 104.931,188.22 103.5,189.5C 103.402,187.447 104.069,185.78 105.5,184.5 Z"/></g>
<g><path style="opacity:0.459" fill="#969696" d="M 735.5,185.5 C 736.906,185.973 737.573,186.973 737.5,188.5C 736.094,188.027 735.427,187.027 735.5,185.5 Z"/></g>
<g><path style="opacity:0.498" fill="#909090" d="M 737.5,188.5 C 738.906,188.973 739.573,189.973 739.5,191.5C 738.094,191.027 737.427,190.027 737.5,188.5 Z"/></g>
<g><path style="opacity:0.294" fill="#bbbbbb" d="M 103.5,189.5 C 103.267,192.542 102.267,195.208 100.5,197.5C 100.733,194.458 101.733,191.792 103.5,189.5 Z"/></g>
<g><path style="opacity:0.565" fill="#8d8d8d" d="M 356.5,186.5 C 357.924,188.515 358.59,190.848 358.5,193.5C 357.076,191.485 356.41,189.152 356.5,186.5 Z"/></g>
<g><path style="opacity:0.522" fill="#8a8a8a" d="M 739.5,191.5 C 740.906,191.973 741.573,192.973 741.5,194.5C 740.094,194.027 739.427,193.027 739.5,191.5 Z"/></g>
<g><path style="opacity:0.553" fill="#848484" d="M 741.5,194.5 C 742.906,194.973 743.573,195.973 743.5,197.5C 742.094,197.027 741.427,196.027 741.5,194.5 Z"/></g>
<g><path style="opacity:0.337" fill="#b6b6b6" d="M 307.5,195.5 C 309.472,198.084 310.472,201.084 310.5,204.5C 308.928,201.785 307.928,198.785 307.5,195.5 Z"/></g>
<g><path style="opacity:0.584" fill="#7e7e7e" d="M 743.5,197.5 C 744.906,197.973 745.573,198.973 745.5,200.5C 744.094,200.027 743.427,199.027 743.5,197.5 Z"/></g>
<g><path style="opacity:0.016" fill="#b0b0b0" d="M 100.5,197.5 C 99.9434,202.052 98.9434,206.385 97.5,210.5C 97.4249,205.808 98.4249,201.474 100.5,197.5 Z"/></g>
<g><path style="opacity:0.612" fill="#787878" d="M 745.5,200.5 C 746.906,200.973 747.573,201.973 747.5,203.5C 746.094,203.027 745.427,202.027 745.5,200.5 Z"/></g>
<g><path style="opacity:0.212" fill="#c1c1c1" d="M 359.5,197.5 C 360.913,200.219 361.58,203.219 361.5,206.5C 360.087,203.781 359.42,200.781 359.5,197.5 Z"/></g>
<g><path style="opacity:0.408" fill="#a1a1a1" d="M 754.5,213.5 C 755.906,213.973 756.573,214.973 756.5,216.5C 755.094,216.027 754.427,215.027 754.5,213.5 Z"/></g>
<g><path style="opacity:0.439" fill="#9b9b9b" d="M 756.5,216.5 C 757.906,216.973 758.573,217.973 758.5,219.5C 757.094,219.027 756.427,218.027 756.5,216.5 Z"/></g>
<g><path style="opacity:0.431" fill="#9c9c9c" d="M 310.5,204.5 C 313.092,210.452 314.425,216.786 314.5,223.5C 312.933,217.337 311.599,211.004 310.5,204.5 Z"/></g>
<g><path style="opacity:0.506" fill="#aaaaaa" d="M 361.5,206.5 C 363.031,211.25 363.698,216.25 363.5,221.5C 361.969,216.75 361.302,211.75 361.5,206.5 Z"/></g>
<g><path style="opacity:0.463" fill="#969696" d="M 758.5,219.5 C 759.906,219.973 760.573,220.973 760.5,222.5C 759.094,222.027 758.427,221.027 758.5,219.5 Z"/></g>
<g><path style="opacity:0.502" fill="#8f8f8f" d="M 760.5,222.5 C 761.906,222.973 762.573,223.973 762.5,225.5C 761.094,225.027 760.427,224.027 760.5,222.5 Z"/></g>
<g><path style="opacity:0.557" fill="#717171" d="M 97.5,211.5 C 96.8544,287.655 96.1877,363.655 95.5,439.5C 95.3333,365.166 95.5,290.833 96,216.5C 96.1981,214.618 96.6981,212.952 97.5,211.5 Z"/></g>
<g><path style="opacity:0.522" fill="#8a8a8a" d="M 762.5,225.5 C 763.906,225.973 764.573,226.973 764.5,228.5C 763.094,228.027 762.427,227.027 762.5,225.5 Z"/></g>
<g><path style="opacity:0.561" fill="#838383" d="M 764.5,228.5 C 765.906,228.973 766.573,229.973 766.5,231.5C 765.094,231.027 764.427,230.027 764.5,228.5 Z"/></g>
<g><path style="opacity:0.584" fill="#7e7e7e" d="M 766.5,231.5 C 767.906,231.973 768.573,232.973 768.5,234.5C 767.094,234.027 766.427,233.027 766.5,231.5 Z"/></g>
<g><path style="opacity:0.631" fill="#adadad" d="M 314.5,225.5 C 315.302,226.952 315.802,228.618 316,230.5C 316.5,298.499 316.667,366.499 316.5,434.5C 315.814,364.986 315.147,295.32 314.5,225.5 Z"/></g>
<g><path style="opacity:0.616" fill="#787878" d="M 768.5,234.5 C 769.906,234.973 770.573,235.973 770.5,237.5C 769.094,237.027 768.427,236.027 768.5,234.5 Z"/></g>
<g><path style="opacity:0.376" fill="#a0a0a0" d="M 729.5,242.5 C 728.833,323.167 728.167,403.833 727.5,484.5C 727.333,403.166 727.5,321.833 728,240.5C 728.717,241.044 729.217,241.711 729.5,242.5 Z"/></g>
<g><path style="opacity:0.965" fill="#7d7d7d" d="M 730.5,244.5 C 732.446,245.035 733.446,246.368 733.5,248.5C 732.026,247.564 731.026,246.23 730.5,244.5 Z"/></g>
<g><path style="opacity:0.416" fill="#a0a0a0" d="M 777.5,247.5 C 778.906,247.973 779.573,248.973 779.5,250.5C 778.094,250.027 777.427,249.027 777.5,247.5 Z"/></g>
<g><path style="opacity:0.439" fill="#9b9b9b" d="M 779.5,250.5 C 780.906,250.973 781.573,251.973 781.5,253.5C 780.094,253.027 779.427,252.027 779.5,250.5 Z"/></g>
<g><path style="opacity:0.471" fill="#959595" d="M 781.5,253.5 C 782.906,253.973 783.573,254.973 783.5,256.5C 782.094,256.027 781.427,255.027 781.5,253.5 Z"/></g>
<g><path style="opacity:0.502" fill="#8f8f8f" d="M 783.5,256.5 C 784.906,256.973 785.573,257.973 785.5,259.5C 784.094,259.027 783.427,258.027 783.5,256.5 Z"/></g>
<g><path style="opacity:1" fill="#090909" d="M 1916.5,322.5 C 1916.03,321.094 1915.03,320.427 1913.5,320.5C 1910.83,318.5 1908.5,316.167 1906.5,313.5C 1906.03,312.094 1905.03,311.427 1903.5,311.5C 1891.48,303.49 1878.15,299.49 1863.5,299.5C 1852.09,299.614 1841.42,302.447 1831.5,308C 1821.82,316.912 1819.82,327.412 1825.5,339.5C 1826.17,342.167 1827.83,343.833 1830.5,344.5C 1835.36,348.099 1840.7,350.933 1846.5,353C 1862.41,357.645 1878.41,361.978 1894.5,366C 1903.6,368.974 1912.27,372.807 1920.5,377.5C 1920.82,379.048 1921.82,379.715 1923.5,379.5C 1929.75,383.078 1935.08,387.744 1939.5,393.5C 1939.43,395.027 1940.09,396.027 1941.5,396.5C 1942.91,396.973 1943.57,397.973 1943.5,399.5C 1943.43,401.027 1944.09,402.027 1945.5,402.5C 1958.58,434.085 1952.91,461.918 1928.5,486C 1914.97,496.424 1899.64,502.424 1882.5,504C 1872.17,504.667 1861.83,504.667 1851.5,504C 1843.84,503.451 1836.51,501.951 1829.5,499.5C 1827.49,498.076 1825.15,497.41 1822.5,497.5C 1813.03,495.094 1804.36,491.094 1796.5,485.5C 1796.03,484.094 1795.03,483.427 1793.5,483.5C 1791.6,483.262 1790.26,482.262 1789.5,480.5C 1789.03,479.094 1788.03,478.427 1786.5,478.5C 1776.38,472.253 1772.21,463.253 1774,451.5C 1774.75,448.316 1776.25,445.649 1778.5,443.5C 1780.5,442.167 1782.17,440.5 1783.5,438.5C 1788.98,433.383 1795.32,432.217 1802.5,435C 1809.71,441.047 1817.04,446.88 1824.5,452.5C 1824.82,454.048 1825.82,454.715 1827.5,454.5C 1849.9,465.96 1872.9,467.293 1896.5,458.5C 1898.03,458.573 1899.03,457.906 1899.5,456.5C 1901.03,456.573 1902.03,455.906 1902.5,454.5C 1903.83,452.5 1905.5,450.833 1907.5,449.5C 1908.91,449.027 1909.57,448.027 1909.5,446.5C 1915.12,431.038 1911.12,418.704 1897.5,409.5C 1897.03,408.094 1896.03,407.427 1894.5,407.5C 1880.41,402.064 1866.07,397.731 1851.5,394.5C 1849.49,393.076 1847.15,392.41 1844.5,392.5C 1834.49,390.388 1825.15,386.722 1816.5,381.5C 1816.03,380.094 1815.03,379.427 1813.5,379.5C 1811.97,379.573 1810.97,378.906 1810.5,377.5C 1810.03,376.094 1809.03,375.427 1807.5,375.5C 1806.74,373.738 1805.4,372.738 1803.5,372.5C 1799.46,369.457 1796.12,365.791 1793.5,361.5C 1793.45,359.368 1792.45,358.035 1790.5,357.5C 1782.15,341.626 1780.32,324.959 1785,307.5C 1786.06,303.05 1787.89,299.05 1790.5,295.5C 1791.91,295.027 1792.57,294.027 1792.5,292.5C 1793.08,290.251 1794.41,288.585 1796.5,287.5C 1799.17,285.5 1801.5,283.167 1803.5,280.5C 1811.12,273.188 1820.12,268.188 1830.5,265.5C 1833.15,265.59 1835.49,264.924 1837.5,263.5C 1869.16,255.555 1898.83,260.388 1926.5,278C 1933.71,283.54 1939.87,290.04 1945,297.5C 1950.21,307.468 1948.71,316.301 1940.5,324C 1932.14,327.616 1924.14,327.116 1916.5,322.5 Z"/></g>
<g><path style="opacity:0.525" fill="#898989" d="M 785.5,259.5 C 786.906,259.973 787.573,260.973 787.5,262.5C 786.094,262.027 785.427,261.027 785.5,259.5 Z"/></g>
<g><path style="opacity:1" fill="#090909" d="M 1040.5,266.5 C 1040.74,268.404 1041.74,269.738 1043.5,270.5C 1045.16,272.493 1046.33,274.826 1047,277.5C 1047.33,318.833 1047.67,360.167 1048,401.5C 1048.51,407.557 1049.35,413.557 1050.5,419.5C 1050.12,421.698 1050.79,423.365 1052.5,424.5C 1054.57,429.647 1056.91,434.647 1059.5,439.5C 1059.74,441.404 1060.74,442.738 1062.5,443.5C 1080.02,460.803 1101.02,467.137 1125.5,462.5C 1128.72,462.655 1131.38,461.655 1133.5,459.5C 1135.71,458.227 1138.05,457.227 1140.5,456.5C 1142.03,456.573 1143.03,455.906 1143.5,454.5C 1145.03,454.573 1146.03,453.906 1146.5,452.5C 1149.47,449.862 1152.47,447.195 1155.5,444.5C 1157.26,443.738 1158.26,442.404 1158.5,440.5C 1159.91,440.027 1160.57,439.027 1160.5,437.5C 1161.91,437.027 1162.57,436.027 1162.5,434.5C 1165.03,429.085 1166.86,423.418 1168,417.5C 1168.33,371.833 1168.67,326.167 1169,280.5C 1169.26,276.201 1170.76,272.534 1173.5,269.5C 1175.17,268.5 1176.5,267.167 1177.5,265.5C 1180.69,262.103 1184.69,260.77 1189.5,261.5C 1195.05,260.952 1199.72,262.619 1203.5,266.5C 1203.74,268.404 1204.74,269.738 1206.5,270.5C 1208.53,273.422 1209.7,276.755 1210,280.5C 1210.67,348.167 1210.67,415.833 1210,483.5C 1207.02,499.062 1197.86,505.229 1182.5,502C 1180.42,501.303 1178.75,500.136 1177.5,498.5C 1177.03,497.094 1176.03,496.427 1174.5,496.5C 1171.07,492.897 1169.41,488.563 1169.5,483.5C 1169.66,480.813 1169.5,478.146 1169,475.5C 1168.28,476.044 1167.78,476.711 1167.5,477.5C 1149.88,496.222 1128.04,505.556 1102,505.5C 1094.35,505.262 1086.85,504.262 1079.5,502.5C 1077.49,501.076 1075.15,500.41 1072.5,500.5C 1065.06,499.029 1058.4,496.029 1052.5,491.5C 1052.03,490.094 1051.03,489.427 1049.5,489.5C 1047.6,489.262 1046.26,488.262 1045.5,486.5C 1045.03,485.094 1044.03,484.427 1042.5,484.5C 1022.87,466.921 1011.37,444.921 1008,418.5C 1006.38,371.523 1006.05,324.523 1007,277.5C 1007.14,274.555 1008.31,272.221 1010.5,270.5C 1011.91,270.027 1012.57,269.027 1012.5,267.5C 1013.26,265.738 1014.6,264.738 1016.5,264.5C 1018.03,264.573 1019.03,263.906 1019.5,262.5C 1024.08,261.393 1028.75,261.227 1033.5,262C 1036.24,263.026 1038.57,264.526 1040.5,266.5 Z"/></g>
<g><path style="opacity:1" fill="#090909" d="M 1547.5,266.5 C 1547.74,268.404 1548.74,269.738 1550.5,270.5C 1552.16,272.493 1553.33,274.826 1554,277.5C 1554.33,318.833 1554.67,360.167 1555,401.5C 1555.51,407.557 1556.35,413.557 1557.5,419.5C 1557.12,421.698 1557.79,423.365 1559.5,424.5C 1561.57,429.647 1563.91,434.647 1566.5,439.5C 1566.74,441.404 1567.74,442.738 1569.5,443.5C 1587.02,460.803 1608.02,467.137 1632.5,462.5C 1635.72,462.655 1638.38,461.655 1640.5,459.5C 1642.71,458.227 1645.05,457.227 1647.5,456.5C 1649.03,456.573 1650.03,455.906 1650.5,454.5C 1652.03,454.573 1653.03,453.906 1653.5,452.5C 1656.47,449.862 1659.47,447.195 1662.5,444.5C 1664.26,443.738 1665.26,442.404 1665.5,440.5C 1666.91,440.027 1667.57,439.027 1667.5,437.5C 1668.91,437.027 1669.57,436.027 1669.5,434.5C 1672.03,429.085 1673.86,423.418 1675,417.5C 1675.33,371.833 1675.67,326.167 1676,280.5C 1676.26,276.201 1677.76,272.534 1680.5,269.5C 1682.17,268.5 1683.5,267.167 1684.5,265.5C 1687.69,262.103 1691.69,260.77 1696.5,261.5C 1702.05,260.952 1706.72,262.619 1710.5,266.5C 1710.74,268.404 1711.74,269.738 1713.5,270.5C 1715.53,273.422 1716.7,276.755 1717,280.5C 1717.67,348.167 1717.67,415.833 1717,483.5C 1714.02,499.062 1704.86,505.229 1689.5,502C 1687.42,501.303 1685.75,500.136 1684.5,498.5C 1684.03,497.094 1683.03,496.427 1681.5,496.5C 1678.07,492.897 1676.41,488.563 1676.5,483.5C 1676.66,480.813 1676.5,478.146 1676,475.5C 1675.28,476.044 1674.78,476.711 1674.5,477.5C 1656.88,496.222 1635.04,505.556 1609,505.5C 1601.35,505.262 1593.85,504.262 1586.5,502.5C 1584.49,501.076 1582.15,500.41 1579.5,500.5C 1572.06,499.029 1565.4,496.029 1559.5,491.5C 1559.03,490.094 1558.03,489.427 1556.5,489.5C 1554.6,489.262 1553.26,488.262 1552.5,486.5C 1552.03,485.094 1551.03,484.427 1549.5,484.5C 1529.87,466.921 1518.37,444.921 1515,418.5C 1513.38,371.523 1513.05,324.523 1514,277.5C 1514.14,274.555 1515.31,272.221 1517.5,270.5C 1518.91,270.027 1519.57,269.027 1519.5,267.5C 1520.26,265.738 1521.6,264.738 1523.5,264.5C 1525.03,264.573 1526.03,263.906 1526.5,262.5C 1531.08,261.393 1535.75,261.227 1540.5,262C 1543.24,263.026 1545.57,264.526 1547.5,266.5 Z"/></g>
<g><path style="opacity:0.839" fill="#767676" d="M 1019.5,262.5 C 1019.03,263.906 1018.03,264.573 1016.5,264.5C 1016.97,263.094 1017.97,262.427 1019.5,262.5 Z"/></g>
<g><path style="opacity:0.839" fill="#767676" d="M 1526.5,262.5 C 1526.03,263.906 1525.03,264.573 1523.5,264.5C 1523.97,263.094 1524.97,262.427 1526.5,262.5 Z"/></g>
<g><path style="opacity:0.565" fill="#838383" d="M 787.5,262.5 C 788.906,262.973 789.573,263.973 789.5,265.5C 788.094,265.027 787.427,264.027 787.5,262.5 Z"/></g>
<g><path style="opacity:0.933" fill="#626262" d="M 1837.5,263.5 C 1835.49,264.924 1833.15,265.59 1830.5,265.5C 1832.51,264.076 1834.85,263.41 1837.5,263.5 Z"/></g>
<g><path style="opacity:0.659" fill="#8c8c8c" d="M 1177.5,265.5 C 1176.5,267.167 1175.17,268.5 1173.5,269.5C 1173.83,267.167 1175.17,265.833 1177.5,265.5 Z"/></g>
<g><path style="opacity:0.659" fill="#8c8c8c" d="M 1684.5,265.5 C 1683.5,267.167 1682.17,268.5 1680.5,269.5C 1680.83,267.167 1682.17,265.833 1684.5,265.5 Z"/></g>
<g><path style="opacity:0.584" fill="#7d7d7d" d="M 789.5,265.5 C 790.906,265.973 791.573,266.973 791.5,268.5C 790.094,268.027 789.427,267.027 789.5,265.5 Z"/></g>
<g><path style="opacity:0.863" fill="#7d7d7d" d="M 1040.5,266.5 C 1042.26,267.262 1043.26,268.596 1043.5,270.5C 1041.74,269.738 1040.74,268.404 1040.5,266.5 Z"/></g>
<g><path style="opacity:0.851" fill="#848484" d="M 1203.5,266.5 C 1205.26,267.262 1206.26,268.596 1206.5,270.5C 1204.74,269.738 1203.74,268.404 1203.5,266.5 Z"/></g>
<g><path style="opacity:0.863" fill="#7d7d7d" d="M 1547.5,266.5 C 1549.26,267.262 1550.26,268.596 1550.5,270.5C 1548.74,269.738 1547.74,268.404 1547.5,266.5 Z"/></g>
<g><path style="opacity:0.851" fill="#848484" d="M 1710.5,266.5 C 1712.26,267.262 1713.26,268.596 1713.5,270.5C 1711.74,269.738 1710.74,268.404 1710.5,266.5 Z"/></g>
<g><path style="opacity:0.843" fill="#787878" d="M 1012.5,267.5 C 1012.57,269.027 1011.91,270.027 1010.5,270.5C 1010.43,268.973 1011.09,267.973 1012.5,267.5 Z"/></g>
<g><path style="opacity:0.843" fill="#787878" d="M 1519.5,267.5 C 1519.57,269.027 1518.91,270.027 1517.5,270.5C 1517.43,268.973 1518.09,267.973 1519.5,267.5 Z"/></g>
<g><path style="opacity:0.624" fill="#767676" d="M 791.5,268.5 C 792.906,268.973 793.573,269.973 793.5,271.5C 792.094,271.027 791.427,270.027 791.5,268.5 Z"/></g>
<g><path style="opacity:0.973" fill="#797979" d="M 751.5,275.5 C 753.446,276.035 754.446,277.368 754.5,279.5C 753.026,278.564 752.026,277.23 751.5,275.5 Z"/></g>
<g><path style="opacity:0.949" fill="#818181" d="M 755.5,281.5 C 757.446,282.035 758.446,283.368 758.5,285.5C 757.026,284.564 756.026,283.23 755.5,281.5 Z"/></g>
<g><path style="opacity:0.42" fill="#9f9f9f" d="M 800.5,281.5 C 801.906,281.973 802.573,282.973 802.5,284.5C 801.094,284.027 800.427,283.027 800.5,281.5 Z"/></g>
<g><path style="opacity:0.439" fill="#9a9a9a" d="M 802.5,284.5 C 803.906,284.973 804.573,285.973 804.5,287.5C 803.094,287.027 802.427,286.027 802.5,284.5 Z"/></g>
<g><path style="opacity:0.576" fill="#8a8a8a" d="M 1803.5,280.5 C 1801.5,283.167 1799.17,285.5 1796.5,287.5C 1797.83,284.167 1800.17,281.833 1803.5,280.5 Z"/></g>
<g><path style="opacity:0.478" fill="#949494" d="M 804.5,287.5 C 805.906,287.973 806.573,288.973 806.5,290.5C 805.094,290.027 804.427,289.027 804.5,287.5 Z"/></g>
<g><path style="opacity:0.502" fill="#8e8e8e" d="M 806.5,290.5 C 807.906,290.973 808.573,291.973 808.5,293.5C 807.094,293.027 806.427,292.027 806.5,290.5 Z"/></g>
<g><path style="opacity:0.549" fill="#808080" d="M 1792.5,292.5 C 1792.57,294.027 1791.91,295.027 1790.5,295.5C 1790.43,293.973 1791.09,292.973 1792.5,292.5 Z"/></g>
<g><path style="opacity:0.533" fill="#888888" d="M 808.5,293.5 C 809.906,293.973 810.573,294.973 810.5,296.5C 809.094,296.027 808.427,295.027 808.5,293.5 Z"/></g>
<g><path style="opacity:0.565" fill="#828282" d="M 810.5,296.5 C 811.906,296.973 812.573,297.973 812.5,299.5C 811.094,299.027 810.427,298.027 810.5,296.5 Z"/></g>
<g><path style="opacity:0.254" fill="#bcbcbc" d="M 213.5,302.5 C 209.131,302.467 204.798,302.8 200.5,303.5C 202.848,302.048 205.514,301.382 208.5,301.5C 210.369,301.507 212.036,301.84 213.5,302.5 Z"/></g>
<g><path style="opacity:0.267" fill="#b6b6b6" d="M 472.5,302.5 C 468.131,302.467 463.798,302.8 459.5,303.5C 461.848,302.048 464.514,301.382 467.5,301.5C 469.369,301.507 471.036,301.84 472.5,302.5 Z"/></g>
<g><path style="opacity:0.588" fill="#7d7d7d" d="M 812.5,299.5 C 813.906,299.973 814.573,300.973 814.5,302.5C 813.094,302.027 812.427,301.027 812.5,299.5 Z"/></g>
<g><path style="opacity:1" fill="#020202" d="M 213.5,302.5 C 221.961,304.292 227.627,309.292 230.5,317.5C 231.153,382.98 231.819,448.313 232.5,513.5C 232.305,521.457 233.305,529.124 235.5,536.5C 236.451,537.919 236.784,539.585 236.5,541.5C 236.171,544.228 236.837,546.562 238.5,548.5C 238.138,552.081 239.138,555.081 241.5,557.5C 243.831,562.829 246.164,568.162 248.5,573.5C 248.427,575.027 249.094,576.027 250.5,576.5C 251.338,576.842 251.672,577.508 251.5,578.5C 251.427,580.027 252.094,581.027 253.5,581.5C 255.063,582.945 256.396,584.611 257.5,586.5C 257.738,588.404 258.738,589.738 260.5,590.5C 264.526,594.195 268.526,597.862 272.5,601.5C 273.035,603.446 274.368,604.446 276.5,604.5C 278.332,605.248 279.999,606.248 281.5,607.5C 281.821,609.048 282.821,609.715 284.5,609.5C 288.151,610.659 291.485,612.326 294.5,614.5C 295.78,615.931 297.447,616.598 299.5,616.5C 302.084,618.472 305.084,619.472 308.5,619.5C 308.833,619.5 309.167,619.5 309.5,619.5C 311.78,621.223 314.447,621.889 317.5,621.5C 324.605,623.012 331.938,623.679 339.5,623.5C 346.411,623.724 353.078,623.058 359.5,621.5C 363.476,620.705 367.476,620.038 371.5,619.5C 374.916,619.472 377.916,618.472 380.5,616.5C 380.842,615.662 381.508,615.328 382.5,615.5C 385.912,614.958 388.912,613.625 391.5,611.5C 394.331,609.583 397.331,607.917 400.5,606.5C 402.027,606.573 403.027,605.906 403.5,604.5C 405.404,604.262 406.738,603.262 407.5,601.5C 409.404,601.262 410.738,600.262 411.5,598.5C 414.833,594.5 418.5,590.833 422.5,587.5C 423.906,587.027 424.573,586.027 424.5,584.5C 424.833,583.5 425.5,582.833 426.5,582.5C 427.906,582.027 428.573,581.027 428.5,579.5C 428.328,578.508 428.662,577.842 429.5,577.5C 430.906,577.027 431.573,576.027 431.5,574.5C 431.328,573.508 431.662,572.842 432.5,572.5C 434.25,571.341 435.25,569.674 435.5,567.5C 436.108,564.673 437.108,562.007 438.5,559.5C 440.213,558.365 440.88,556.698 440.5,554.5C 440.216,552.585 440.549,550.919 441.5,549.5C 443.175,546.493 443.841,543.16 443.5,539.5C 444.309,537.708 444.809,535.708 445,533.5C 445.179,461.145 445.679,388.812 446.5,316.5C 446.66,314.847 447.326,313.514 448.5,312.5C 450.262,311.738 451.262,310.404 451.5,308.5C 453.404,308.262 454.738,307.262 455.5,305.5C 456.514,304.326 457.847,303.66 459.5,303.5C 463.798,302.8 468.131,302.467 472.5,302.5C 474.214,303.738 476.214,304.405 478.5,304.5C 480.062,304.733 481.395,305.4 482.5,306.5C 483.08,308.749 484.413,310.415 486.5,311.5C 486.427,313.027 487.094,314.027 488.5,314.5C 488.372,316.655 488.872,318.655 490,320.5C 490.5,430.499 490.667,540.499 490.5,650.5C 489.181,657.822 485.181,663.155 478.5,666.5C 476.214,666.595 474.214,667.262 472.5,668.5C 468.228,669.257 463.895,669.09 459.5,668C 457.934,667.392 456.6,666.558 455.5,665.5C 454.415,663.413 452.749,662.08 450.5,661.5C 449.075,660.078 448.075,658.411 447.5,656.5C 447.313,654.436 446.813,652.436 446,650.5C 445.667,640.167 445.333,629.833 445,619.5C 444.283,620.044 443.783,620.711 443.5,621.5C 443.5,621.833 443.5,622.167 443.5,622.5C 427.314,641.928 407.314,655.928 383.5,664.5C 378.951,665.463 374.617,666.796 370.5,668.5C 365.022,670.395 359.356,671.395 353.5,671.5C 341.17,672.77 328.837,672.77 316.5,671.5C 312.433,669.946 308.1,669.28 303.5,669.5C 301.379,669.675 299.379,669.341 297.5,668.5C 294.201,666.517 290.534,665.517 286.5,665.5C 285.209,665.737 284.209,665.404 283.5,664.5C 281.316,662.415 278.649,661.415 275.5,661.5C 271.646,660.07 267.979,658.403 264.5,656.5C 264.027,655.094 263.027,654.427 261.5,654.5C 260.508,654.672 259.842,654.338 259.5,653.5C 259.027,652.094 258.027,651.427 256.5,651.5C 256.027,650.094 255.027,649.427 253.5,649.5C 251.566,648.89 249.899,647.89 248.5,646.5C 247.415,644.413 245.749,643.08 243.5,642.5C 242.738,640.738 241.404,639.738 239.5,639.5C 237.5,638.167 235.833,636.5 234.5,634.5C 233.5,632.833 232.167,631.5 230.5,630.5C 227.833,628.5 225.5,626.167 223.5,623.5C 223.573,621.973 222.906,620.973 221.5,620.5C 217.688,616.223 214.355,611.557 211.5,606.5C 211.715,604.821 211.048,603.821 209.5,603.5C 206.326,598.484 203.659,593.151 201.5,587.5C 201.598,585.447 200.931,583.78 199.5,582.5C 199.598,580.447 198.931,578.78 197.5,577.5C 197.072,574.215 196.072,571.215 194.5,568.5C 192.898,564.761 191.898,560.761 191.5,556.5C 188.854,542.957 187.188,529.291 186.5,515.5C 186.5,450.167 186.5,384.833 186.5,319.5C 188.213,318.365 188.88,316.698 188.5,314.5C 190.262,313.738 191.262,312.404 191.5,310.5C 192.5,310.167 193.167,309.5 193.5,308.5C 195.296,306.1 197.63,304.433 200.5,303.5C 204.798,302.8 209.131,302.467 213.5,302.5 Z"/></g>
<g><path style="opacity:0.039" fill="#aeaeae" d="M 472.5,302.5 C 474.898,302.259 476.898,302.926 478.5,304.5C 476.214,304.405 474.214,303.738 472.5,302.5 Z"/></g>
<g><path style="opacity:0.627" fill="#767676" d="M 814.5,302.5 C 815.906,302.973 816.573,303.973 816.5,305.5C 815.094,305.027 814.427,304.027 814.5,302.5 Z"/></g>
<g><path style="opacity:0.737" fill="#767676" d="M 455.5,305.5 C 454.738,307.262 453.404,308.262 451.5,308.5C 452.262,306.738 453.596,305.738 455.5,305.5 Z"/></g>
<g><path style="opacity:0.663" fill="#9b9b9b" d="M 482.5,306.5 C 484.587,307.585 485.92,309.251 486.5,311.5C 484.413,310.415 483.08,308.749 482.5,306.5 Z"/></g>
<g><path style="opacity:0.408" fill="#ababab" d="M 193.5,308.5 C 193.167,309.5 192.5,310.167 191.5,310.5C 191.5,309.167 192.167,308.5 193.5,308.5 Z"/></g>
<g><path style="opacity:0.792" fill="#868686" d="M 451.5,308.5 C 451.262,310.404 450.262,311.738 448.5,312.5C 448.738,310.596 449.738,309.262 451.5,308.5 Z"/></g>
<g><path style="opacity:0.973" fill="#797979" d="M 774.5,309.5 C 776.446,310.035 777.446,311.368 777.5,313.5C 776.026,312.564 775.026,311.23 774.5,309.5 Z"/></g>
<g><path style="opacity:0.671" fill="#9b9b9b" d="M 1903.5,311.5 C 1905.03,311.427 1906.03,312.094 1906.5,313.5C 1904.97,313.573 1903.97,312.906 1903.5,311.5 Z"/></g>
<g><path style="opacity:0.608" fill="#909090" d="M 191.5,310.5 C 191.262,312.404 190.262,313.738 188.5,314.5C 188.738,312.596 189.738,311.262 191.5,310.5 Z"/></g>
<g><path style="opacity:0.525" fill="#848484" d="M 486.5,311.5 C 487.906,311.973 488.573,312.973 488.5,314.5C 487.094,314.027 486.427,313.027 486.5,311.5 Z"/></g>
<g><path style="opacity:0.949" fill="#818181" d="M 778.5,315.5 C 780.446,316.035 781.446,317.368 781.5,319.5C 780.026,318.564 779.026,317.23 778.5,315.5 Z"/></g>
<g><path style="opacity:0.965" fill="#777777" d="M 188.5,314.5 C 188.88,316.698 188.213,318.365 186.5,319.5C 186.402,317.447 187.069,315.78 188.5,314.5 Z"/></g>
<g><path style="opacity:0.42" fill="#9f9f9f" d="M 823.5,315.5 C 824.906,315.973 825.573,316.973 825.5,318.5C 824.094,318.027 823.427,317.027 823.5,315.5 Z"/></g>
<g><path style="opacity:0.443" fill="#9a9a9a" d="M 825.5,318.5 C 826.906,318.973 827.573,319.973 827.5,321.5C 826.094,321.027 825.427,320.027 825.5,318.5 Z"/></g>
<g><path style="opacity:0.427" fill="#9f9f9f" d="M 1913.5,320.5 C 1915.03,320.427 1916.03,321.094 1916.5,322.5C 1914.97,322.573 1913.97,321.906 1913.5,320.5 Z"/></g>
<g><path style="opacity:0.482" fill="#939393" d="M 827.5,321.5 C 828.906,321.973 829.573,322.973 829.5,324.5C 828.094,324.027 827.427,323.027 827.5,321.5 Z"/></g>
<g><path style="opacity:0.627" fill="#8f8f8f" d="M 446.5,316.5 C 445.679,388.812 445.179,461.145 445,533.5C 444.809,535.708 444.309,537.708 443.5,539.5C 443.333,468.166 443.5,396.833 444,325.5C 444.204,322.203 445.037,319.203 446.5,316.5 Z"/></g>
<g><path style="opacity:0.674" fill="#555555" d="M 488.5,314.5 C 489.793,315.842 490.626,317.509 491,319.5C 491.833,430.001 491.666,540.334 490.5,650.5C 490.667,540.499 490.5,430.499 490,320.5C 488.872,318.655 488.372,316.655 488.5,314.5 Z"/></g>
<g><path style="opacity:0.502" fill="#8e8e8e" d="M 829.5,324.5 C 830.906,324.973 831.573,325.973 831.5,327.5C 830.094,327.027 829.427,326.027 829.5,324.5 Z"/></g>
<g><path style="opacity:0.718" fill="#494949" d="M 230.5,317.5 C 231.268,318.263 231.768,319.263 232,320.5C 232.5,383.166 232.667,445.832 232.5,508.5C 232.5,510.167 232.5,511.833 232.5,513.5C 231.819,448.313 231.153,382.98 230.5,317.5 Z"/></g>
<g><path style="opacity:0.682" fill="#858585" d="M 186.5,319.5 C 186.5,384.833 186.5,450.167 186.5,515.5C 186.167,515.5 185.833,515.5 185.5,515.5C 184.344,451.862 184.178,388.195 185,324.5C 185.198,322.618 185.698,320.952 186.5,319.5 Z"/></g>
<g><path style="opacity:0.537" fill="#888888" d="M 831.5,327.5 C 832.906,327.973 833.573,328.973 833.5,330.5C 832.094,330.027 831.427,329.027 831.5,327.5 Z"/></g>
<g><path style="opacity:0.565" fill="#828282" d="M 833.5,330.5 C 834.906,330.973 835.573,331.973 835.5,333.5C 834.094,333.027 833.427,332.027 833.5,330.5 Z"/></g>
<g><path style="opacity:0.596" fill="#7b7b7b" d="M 835.5,333.5 C 836.906,333.973 837.573,334.973 837.5,336.5C 836.094,336.027 835.427,335.027 835.5,333.5 Z"/></g>
<g><path style="opacity:0.627" fill="#767676" d="M 837.5,336.5 C 838.906,336.973 839.573,337.973 839.5,339.5C 838.094,339.027 837.427,338.027 837.5,336.5 Z"/></g>
<g><path style="opacity:0.898" fill="#8c8c8c" d="M 1825.5,339.5 C 1827.5,340.833 1829.17,342.5 1830.5,344.5C 1827.83,343.833 1826.17,342.167 1825.5,339.5 Z"/></g>
<g><path style="opacity:0.973" fill="#7a7a7a" d="M 797.5,343.5 C 799.446,344.035 800.446,345.368 800.5,347.5C 799.026,346.564 798.026,345.23 797.5,343.5 Z"/></g>
<g><path style="opacity:0.949" fill="#818181" d="M 801.5,349.5 C 803.446,350.035 804.446,351.368 804.5,353.5C 803.026,352.564 802.026,351.23 801.5,349.5 Z"/></g>
<g><path style="opacity:0.42" fill="#9f9f9f" d="M 846.5,349.5 C 847.906,349.973 848.573,350.973 848.5,352.5C 847.094,352.027 846.427,351.027 846.5,349.5 Z"/></g>
<g><path style="opacity:0.447" fill="#999999" d="M 848.5,352.5 C 849.906,352.973 850.573,353.973 850.5,355.5C 849.094,355.027 848.427,354.027 848.5,352.5 Z"/></g>
<g><path style="opacity:0.482" fill="#939393" d="M 850.5,355.5 C 851.906,355.973 852.573,356.973 852.5,358.5C 851.094,358.027 850.427,357.027 850.5,355.5 Z"/></g>
<g><path style="opacity:0.949" fill="#7f7f7f" d="M 1790.5,357.5 C 1792.45,358.035 1793.45,359.368 1793.5,361.5C 1792.03,360.564 1791.03,359.23 1790.5,357.5 Z"/></g>
<g><path style="opacity:0.506" fill="#8d8d8d" d="M 852.5,358.5 C 853.906,358.973 854.573,359.973 854.5,361.5C 853.094,361.027 852.427,360.027 852.5,358.5 Z"/></g>
<g><path style="opacity:0.545" fill="#878787" d="M 854.5,361.5 C 855.906,361.973 856.573,362.973 856.5,364.5C 855.094,364.027 854.427,363.027 854.5,361.5 Z"/></g>
<g><path style="opacity:0.565" fill="#818181" d="M 856.5,364.5 C 857.906,364.973 858.573,365.973 858.5,367.5C 857.094,367.027 856.427,366.027 856.5,364.5 Z"/></g>
<g><path style="opacity:0.6" fill="#7b7b7b" d="M 858.5,367.5 C 859.906,367.973 860.573,368.973 860.5,370.5C 859.094,370.027 858.427,369.027 858.5,367.5 Z"/></g>
<g><path style="opacity:0.627" fill="#757575" d="M 860.5,370.5 C 861.906,370.973 862.573,371.973 862.5,373.5C 861.094,373.027 860.427,372.027 860.5,370.5 Z"/></g>
<g><path style="opacity:0.835" fill="#858585" d="M 1803.5,372.5 C 1805.4,372.738 1806.74,373.738 1807.5,375.5C 1805.6,375.262 1804.26,374.262 1803.5,372.5 Z"/></g>
<g><path style="opacity:0.624" fill="#787878" d="M 1807.5,375.5 C 1809.03,375.427 1810.03,376.094 1810.5,377.5C 1808.97,377.573 1807.97,376.906 1807.5,375.5 Z"/></g>
<g><path style="opacity:0.973" fill="#7a7a7a" d="M 820.5,377.5 C 822.446,378.035 823.446,379.368 823.5,381.5C 822.026,380.564 821.026,379.23 820.5,377.5 Z"/></g>
<g><path style="opacity:0.949" fill="#7a7a7a" d="M 1920.5,377.5 C 1921.71,377.932 1922.71,378.599 1923.5,379.5C 1921.82,379.715 1920.82,379.048 1920.5,377.5 Z"/></g>
<g><path style="opacity:0.357" fill="#a0a0a0" d="M 1813.5,379.5 C 1815.03,379.427 1816.03,380.094 1816.5,381.5C 1814.97,381.573 1813.97,380.906 1813.5,379.5 Z"/></g>
<g><path style="opacity:0.396" fill="#a4a4a4" d="M 867.5,380.5 C 868.906,380.973 869.573,381.973 869.5,383.5C 868.094,383.027 867.427,382.027 867.5,380.5 Z"/></g>
<g><path style="opacity:0.949" fill="#818181" d="M 824.5,383.5 C 826.446,384.035 827.446,385.368 827.5,387.5C 826.026,386.564 825.026,385.23 824.5,383.5 Z"/></g>
<g><path style="opacity:0.42" fill="#9e9e9e" d="M 869.5,383.5 C 870.906,383.973 871.573,384.973 871.5,386.5C 870.094,386.027 869.427,385.027 869.5,383.5 Z"/></g>
<g><path style="opacity:0.455" fill="#989898" d="M 871.5,386.5 C 872.906,386.973 873.573,387.973 873.5,389.5C 872.094,389.027 871.427,388.027 871.5,386.5 Z"/></g>
<g><path style="opacity:0.482" fill="#929292" d="M 873.5,389.5 C 874.906,389.973 875.573,390.973 875.5,392.5C 874.094,392.027 873.427,391.027 873.5,389.5 Z"/></g>
<g><path style="opacity:0.769" fill="#686868" d="M 1844.5,392.5 C 1847.15,392.41 1849.49,393.076 1851.5,394.5C 1848.85,394.59 1846.51,393.924 1844.5,392.5 Z"/></g>
<g><path style="opacity:0.51" fill="#8d8d8d" d="M 875.5,392.5 C 876.906,392.973 877.573,393.973 877.5,395.5C 876.094,395.027 875.427,394.027 875.5,392.5 Z"/></g>
<g><path style="opacity:0.573" fill="#898989" d="M 1939.5,393.5 C 1940.91,393.973 1941.57,394.973 1941.5,396.5C 1940.09,396.027 1939.43,395.027 1939.5,393.5 Z"/></g>
<g><path style="opacity:0.545" fill="#868686" d="M 877.5,395.5 C 878.906,395.973 879.573,396.973 879.5,398.5C 878.094,398.027 877.427,397.027 877.5,395.5 Z"/></g>
<g><path style="opacity:0.569" fill="#818181" d="M 879.5,398.5 C 880.906,398.973 881.573,399.973 881.5,401.5C 880.094,401.027 879.427,400.027 879.5,398.5 Z"/></g>
<g><path style="opacity:0.345" fill="#a0a0a0" d="M 1943.5,399.5 C 1944.91,399.973 1945.57,400.973 1945.5,402.5C 1944.09,402.027 1943.43,401.027 1943.5,399.5 Z"/></g>
<g><path style="opacity:0.608" fill="#7a7a7a" d="M 881.5,401.5 C 882.906,401.973 883.573,402.973 883.5,404.5C 882.094,404.027 881.427,403.027 881.5,401.5 Z"/></g>
<g><path style="opacity:0.369" fill="#a0a0a0" d="M 1894.5,407.5 C 1896.03,407.427 1897.03,408.094 1897.5,409.5C 1895.97,409.573 1894.97,408.906 1894.5,407.5 Z"/></g>
<g><path style="opacity:0.973" fill="#7a7a7a" d="M 843.5,411.5 C 845.446,412.035 846.446,413.368 846.5,415.5C 845.026,414.564 844.026,413.23 843.5,411.5 Z"/></g>
<g><path style="opacity:0.396" fill="#a4a4a4" d="M 890.5,414.5 C 891.906,414.973 892.573,415.973 892.5,417.5C 891.094,417.027 890.427,416.027 890.5,414.5 Z"/></g>
<g><path style="opacity:0.949" fill="#828282" d="M 847.5,417.5 C 849.446,418.035 850.446,419.368 850.5,421.5C 849.026,420.564 848.026,419.23 847.5,417.5 Z"/></g>
<g><path style="opacity:0.42" fill="#9e9e9e" d="M 892.5,417.5 C 893.906,417.973 894.573,418.973 894.5,420.5C 893.094,420.027 892.427,419.027 892.5,417.5 Z"/></g>
<g><path style="opacity:0.925" fill="#757575" d="M 1050.5,419.5 C 1051.54,420.93 1052.2,422.597 1052.5,424.5C 1050.79,423.365 1050.12,421.698 1050.5,419.5 Z"/></g>
<g><path style="opacity:0.925" fill="#757575" d="M 1557.5,419.5 C 1558.54,420.93 1559.2,422.597 1559.5,424.5C 1557.79,423.365 1557.12,421.698 1557.5,419.5 Z"/></g>
<g><path style="opacity:0.396" fill="#9c9c9c" d="M 1162.5,434.5 C 1162.57,436.027 1161.91,437.027 1160.5,437.5C 1160.43,435.973 1161.09,434.973 1162.5,434.5 Z"/></g>
<g><path style="opacity:0.396" fill="#9c9c9c" d="M 1669.5,434.5 C 1669.57,436.027 1668.91,437.027 1667.5,437.5C 1667.43,435.973 1668.09,434.973 1669.5,434.5 Z"/></g>
<g><path style="opacity:0.424" fill="#9f9f9f" d="M 1160.5,437.5 C 1160.57,439.027 1159.91,440.027 1158.5,440.5C 1158.43,438.973 1159.09,437.973 1160.5,437.5 Z"/></g>
<g><path style="opacity:0.424" fill="#9f9f9f" d="M 1667.5,437.5 C 1667.57,439.027 1666.91,440.027 1665.5,440.5C 1665.43,438.973 1666.09,437.973 1667.5,437.5 Z"/></g>
<g><path style="opacity:0.012" fill="#e4e4e4" d="M 47.5,438.5 C 48.7384,440.214 49.405,442.214 49.5,444.5C 47.9261,442.898 47.2594,440.898 47.5,438.5 Z"/></g>
<g><path style="opacity:0.71" fill="#797979" d="M 1059.5,439.5 C 1061.26,440.262 1062.26,441.596 1062.5,443.5C 1060.74,442.738 1059.74,441.404 1059.5,439.5 Z"/></g>
<g><path style="opacity:0.875" fill="#767676" d="M 1158.5,440.5 C 1158.26,442.404 1157.26,443.738 1155.5,444.5C 1155.74,442.596 1156.74,441.262 1158.5,440.5 Z"/></g>
<g><path style="opacity:0.71" fill="#797979" d="M 1566.5,439.5 C 1568.26,440.262 1569.26,441.596 1569.5,443.5C 1567.74,442.738 1566.74,441.404 1566.5,439.5 Z"/></g>
<g><path style="opacity:0.875" fill="#767676" d="M 1665.5,440.5 C 1665.26,442.404 1664.26,443.738 1662.5,444.5C 1662.74,442.596 1663.74,441.262 1665.5,440.5 Z"/></g>
<g><path style="opacity:0.651" fill="#858585" d="M 1783.5,438.5 C 1782.17,440.5 1780.5,442.167 1778.5,443.5C 1779.17,440.833 1780.83,439.167 1783.5,438.5 Z"/></g>
<g><path style="opacity:0.012" fill="#c5c5c5" d="M 95.5,440.5 C 95.7406,442.898 95.0739,444.898 93.5,446.5C 93.595,444.214 94.2616,442.214 95.5,440.5 Z"/></g>
<g><path style="opacity:0.196" fill="#bcbcbc" d="M 363.5,442.5 C 363.539,445.089 362.539,447.089 360.5,448.5C 360.992,446.181 361.992,444.181 363.5,442.5 Z"/></g>
<g><path style="opacity:0.973" fill="#7a7a7a" d="M 866.5,445.5 C 868.446,446.035 869.446,447.368 869.5,449.5C 868.026,448.564 867.026,447.23 866.5,445.5 Z"/></g>
<g><path style="opacity:0.6" fill="#7b7b7b" d="M 1909.5,446.5 C 1909.57,448.027 1908.91,449.027 1907.5,449.5C 1907.43,447.973 1908.09,446.973 1909.5,446.5 Z"/></g>
<g><path style="opacity:0.004" fill="#cdcdcd" d="M 360.5,448.5 C 360.573,450.027 359.906,451.027 358.5,451.5C 358.427,449.973 359.094,448.973 360.5,448.5 Z"/></g>
<g><path style="opacity:0.949" fill="#828282" d="M 870.5,451.5 C 872.446,452.035 873.446,453.368 873.5,455.5C 872.026,454.564 871.026,453.23 870.5,451.5 Z"/></g>
<g><path style="opacity:0.788" fill="#838383" d="M 54.5,452.5 C 56.4044,452.738 57.7377,453.738 58.5,455.5C 56.5956,455.262 55.2623,454.262 54.5,452.5 Z"/></g>
<g><path style="opacity:0.604" fill="#acacac" d="M 323.5,452.5 C 325.404,452.738 326.738,453.738 327.5,455.5C 325.596,455.262 324.262,454.262 323.5,452.5 Z"/></g>
<g><path style="opacity:0.749" fill="#868686" d="M 1146.5,452.5 C 1146.03,453.906 1145.03,454.573 1143.5,454.5C 1143.97,453.094 1144.97,452.427 1146.5,452.5 Z"/></g>
<g><path style="opacity:0.749" fill="#868686" d="M 1653.5,452.5 C 1653.03,453.906 1652.03,454.573 1650.5,454.5C 1650.97,453.094 1651.97,452.427 1653.5,452.5 Z"/></g>
<g><path style="opacity:0.918" fill="#808080" d="M 1824.5,452.5 C 1825.71,452.932 1826.71,453.599 1827.5,454.5C 1825.82,454.715 1824.82,454.048 1824.5,452.5 Z"/></g>
<g><path style="opacity:0.8" fill="#7c7c7c" d="M 1143.5,454.5 C 1143.03,455.906 1142.03,456.573 1140.5,456.5C 1140.97,455.094 1141.97,454.427 1143.5,454.5 Z"/></g>
<g><path style="opacity:0.8" fill="#7c7c7c" d="M 1650.5,454.5 C 1650.03,455.906 1649.03,456.573 1647.5,456.5C 1647.97,455.094 1648.97,454.427 1650.5,454.5 Z"/></g>
<g><path style="opacity:0.737" fill="#858585" d="M 1902.5,454.5 C 1902.03,455.906 1901.03,456.573 1899.5,456.5C 1899.97,455.094 1900.97,454.427 1902.5,454.5 Z"/></g>
<g><path style="opacity:0.776" fill="#818181" d="M 1899.5,456.5 C 1899.03,457.906 1898.03,458.573 1896.5,458.5C 1896.97,457.094 1897.97,456.427 1899.5,456.5 Z"/></g>
<g><path style="opacity:0.621" fill="#7a7a7a" d="M 62.5,457.5 C 67.7968,458.275 73.1301,458.608 78.5,458.5C 76.5274,459.163 74.3608,459.496 72,459.5C 68.5226,459.672 65.356,459.006 62.5,457.5 Z"/></g>
<g><path style="opacity:0.621" fill="#7c7c7c" d="M 331.5,457.5 C 336.463,458.254 341.463,458.587 346.5,458.5C 344.696,459.162 342.696,459.495 340.5,459.5C 337.186,459.657 334.186,458.991 331.5,457.5 Z"/></g>
<g><path style="opacity:0.953" fill="#595959" d="M 1133.5,459.5 C 1131.38,461.655 1128.72,462.655 1125.5,462.5C 1127.94,461.129 1130.6,460.129 1133.5,459.5 Z"/></g>
<g><path style="opacity:0.953" fill="#595959" d="M 1640.5,459.5 C 1638.38,461.655 1635.72,462.655 1632.5,462.5C 1634.94,461.129 1637.6,460.129 1640.5,459.5 Z"/></g>
<g><path style="opacity:0.933" fill="#7e7e7e" d="M 1284.5,472.5 C 1286.05,472.821 1286.71,473.821 1286.5,475.5C 1285.6,474.71 1284.93,473.71 1284.5,472.5 Z"/></g>
<g><path style="opacity:0.933" fill="#7e7e7e" d="M 1402.5,472.5 C 1404.05,472.821 1404.71,473.821 1404.5,475.5C 1403.6,474.71 1402.93,473.71 1402.5,472.5 Z"/></g>
<g><path style="opacity:0.188" fill="#c4c4c4" d="M 1169.5,483.5 C 1168.83,481.5 1168.17,479.5 1167.5,477.5C 1167.78,476.711 1168.28,476.044 1169,475.5C 1169.5,478.146 1169.66,480.813 1169.5,483.5 Z"/></g>
<g><path style="opacity:0.188" fill="#c4c4c4" d="M 1676.5,483.5 C 1675.83,481.5 1675.17,479.5 1674.5,477.5C 1674.78,476.711 1675.28,476.044 1676,475.5C 1676.5,478.146 1676.66,480.813 1676.5,483.5 Z"/></g>
<g><path style="opacity:0.796" fill="#838383" d="M 1786.5,478.5 C 1788.03,478.427 1789.03,479.094 1789.5,480.5C 1787.97,480.573 1786.97,479.906 1786.5,478.5 Z"/></g>
<g><path style="opacity:0.973" fill="#7a7a7a" d="M 889.5,479.5 C 891.446,480.035 892.446,481.368 892.5,483.5C 891.026,482.564 890.026,481.23 889.5,479.5 Z"/></g>
<g><path style="opacity:0.804" fill="#7f7f7f" d="M 1042.5,484.5 C 1044.03,484.427 1045.03,485.094 1045.5,486.5C 1043.97,486.573 1042.97,485.906 1042.5,484.5 Z"/></g>
<g><path style="opacity:0.804" fill="#7f7f7f" d="M 1549.5,484.5 C 1551.03,484.427 1552.03,485.094 1552.5,486.5C 1550.97,486.573 1549.97,485.906 1549.5,484.5 Z"/></g>
<g><path style="opacity:0.463" fill="#919191" d="M 1793.5,483.5 C 1795.03,483.427 1796.03,484.094 1796.5,485.5C 1794.97,485.573 1793.97,484.906 1793.5,483.5 Z"/></g>
<g><path style="opacity:0.949" fill="#828282" d="M 893.5,485.5 C 895.446,486.035 896.446,487.368 896.5,489.5C 895.026,488.564 894.026,487.23 893.5,485.5 Z"/></g>
<g><path style="opacity:0.51" fill="#888888" d="M 1049.5,489.5 C 1051.03,489.427 1052.03,490.094 1052.5,491.5C 1050.97,491.573 1049.97,490.906 1049.5,489.5 Z"/></g>
<g><path style="opacity:0.51" fill="#888888" d="M 1556.5,489.5 C 1558.03,489.427 1559.03,490.094 1559.5,491.5C 1557.97,491.573 1556.97,490.906 1556.5,489.5 Z"/></g>
<g><path style="opacity:0.502" fill="#969696" d="M 1300.5,491.5 C 1302.03,491.427 1303.03,492.094 1303.5,493.5C 1301.97,493.573 1300.97,492.906 1300.5,491.5 Z"/></g>
<g><path style="opacity:0.502" fill="#969696" d="M 1418.5,491.5 C 1420.03,491.427 1421.03,492.094 1421.5,493.5C 1419.97,493.573 1418.97,492.906 1418.5,491.5 Z"/></g>
<g><path style="opacity:0.545" fill="#838383" d="M 1303.5,493.5 C 1305.03,493.427 1306.03,494.094 1306.5,495.5C 1304.97,495.573 1303.97,494.906 1303.5,493.5 Z"/></g>
<g><path style="opacity:0.545" fill="#838383" d="M 1421.5,493.5 C 1423.03,493.427 1424.03,494.094 1424.5,495.5C 1422.97,495.573 1421.97,494.906 1421.5,493.5 Z"/></g>
<g><path style="opacity:0.698" fill="#919191" d="M 692.5,496.5 C 694.027,496.427 695.027,497.094 695.5,498.5C 693.973,498.573 692.973,497.906 692.5,496.5 Z"/></g>
<g><path style="opacity:0.592" fill="#a4a4a4" d="M 1174.5,496.5 C 1176.03,496.427 1177.03,497.094 1177.5,498.5C 1175.97,498.573 1174.97,497.906 1174.5,496.5 Z"/></g>
<g><path style="opacity:0.592" fill="#a4a4a4" d="M 1681.5,496.5 C 1683.03,496.427 1684.03,497.094 1684.5,498.5C 1682.97,498.573 1681.97,497.906 1681.5,496.5 Z"/></g>
<g><path style="opacity:0.004" fill="#c6c6c6" d="M 722.5,495.5 C 722.5,497.5 721.5,498.5 719.5,498.5C 720.167,497.167 721.167,496.167 722.5,495.5 Z"/></g>
<g><path style="opacity:0.953" fill="#646464" d="M 1822.5,497.5 C 1825.15,497.41 1827.49,498.076 1829.5,499.5C 1826.85,499.59 1824.51,498.924 1822.5,497.5 Z"/></g>
<g><path style="opacity:0.941" fill="#6a6a6a" d="M 1314.5,499.5 C 1317.15,499.41 1319.49,500.076 1321.5,501.5C 1318.85,501.59 1316.51,500.924 1314.5,499.5 Z"/></g>
<g><path style="opacity:0.941" fill="#6a6a6a" d="M 1432.5,499.5 C 1435.15,499.41 1437.49,500.076 1439.5,501.5C 1436.85,501.59 1434.51,500.924 1432.5,499.5 Z"/></g>
<g><path style="opacity:0.686" fill="#787878" d="M 1072.5,500.5 C 1075.15,500.41 1077.49,501.076 1079.5,502.5C 1076.85,502.59 1074.51,501.924 1072.5,500.5 Z"/></g>
<g><path style="opacity:0.686" fill="#787878" d="M 1579.5,500.5 C 1582.15,500.41 1584.49,501.076 1586.5,502.5C 1583.85,502.59 1581.51,501.924 1579.5,500.5 Z"/></g>
<g><path style="opacity:0.298" fill="#a0a0a0" d="M 185.5,515.5 C 185.833,515.5 186.167,515.5 186.5,515.5C 187.188,529.291 188.854,542.957 191.5,556.5C 187.652,543.234 185.652,529.568 185.5,515.5 Z"/></g>
<g><path style="opacity:0.686" fill="#959595" d="M 232.5,508.5 C 233.408,517.699 234.408,527.032 235.5,536.5C 233.305,529.124 232.305,521.457 232.5,513.5C 232.5,511.833 232.5,510.167 232.5,508.5 Z"/></g>
<g><path style="opacity:0.067" fill="#bfbfbf" d="M 236.5,541.5 C 237.924,543.515 238.59,545.848 238.5,548.5C 236.837,546.562 236.171,544.228 236.5,541.5 Z"/></g>
<g><path style="opacity:0.063" fill="#d6d6d6" d="M 443.5,539.5 C 443.841,543.16 443.175,546.493 441.5,549.5C 441.753,545.96 442.419,542.627 443.5,539.5 Z"/></g>
<g><path style="opacity:0.773" fill="#9e9e9e" d="M 238.5,548.5 C 239.946,551.254 240.946,554.254 241.5,557.5C 239.138,555.081 238.138,552.081 238.5,548.5 Z"/></g>
<g><path style="opacity:0.835" fill="#818181" d="M 440.5,554.5 C 440.88,556.698 440.213,558.365 438.5,559.5C 438.796,557.597 439.463,555.93 440.5,554.5 Z"/></g>
<g><path style="opacity:0.184" fill="#c0c0c0" d="M 435.5,567.5 C 435.25,569.674 434.25,571.341 432.5,572.5C 432.75,570.326 433.75,568.659 435.5,567.5 Z"/></g>
<g><path style="opacity:0.008" fill="#cecece" d="M 194.5,568.5 C 196.072,571.215 197.072,574.215 197.5,577.5C 195.528,574.916 194.528,571.916 194.5,568.5 Z"/></g>
<g><path style="opacity:0.318" fill="#acacac" d="M 248.5,573.5 C 249.906,573.973 250.573,574.973 250.5,576.5C 249.094,576.027 248.427,575.027 248.5,573.5 Z"/></g>
<g><path style="opacity:0.235" fill="#c3c3c3" d="M 431.5,574.5 C 431.573,576.027 430.906,577.027 429.5,577.5C 429.427,575.973 430.094,574.973 431.5,574.5 Z"/></g>
<g><path style="opacity:0.373" fill="#a7a7a7" d="M 197.5,577.5 C 198.931,578.78 199.598,580.447 199.5,582.5C 198.069,581.22 197.402,579.553 197.5,577.5 Z"/></g>
<g><path style="opacity:0.545" fill="#888888" d="M 251.5,578.5 C 252.906,578.973 253.573,579.973 253.5,581.5C 252.094,581.027 251.427,580.027 251.5,578.5 Z"/></g>
<g><path style="opacity:0.612" fill="#7d7d7d" d="M 428.5,579.5 C 428.573,581.027 427.906,582.027 426.5,582.5C 426.427,580.973 427.094,579.973 428.5,579.5 Z"/></g>
<g><path style="opacity:0.353" fill="#ababab" d="M 199.5,582.5 C 200.931,583.78 201.598,585.447 201.5,587.5C 200.069,586.22 199.402,584.553 199.5,582.5 Z"/></g>
<g><path style="opacity:0.655" fill="#989898" d="M 424.5,584.5 C 424.573,586.027 423.906,587.027 422.5,587.5C 422.427,585.973 423.094,584.973 424.5,584.5 Z"/></g>
<g><path style="opacity:0.71" fill="#979797" d="M 257.5,586.5 C 259.262,587.262 260.262,588.596 260.5,590.5C 258.738,589.738 257.738,588.404 257.5,586.5 Z"/></g>
<g><path style="opacity:0.678" fill="#7c7c7c" d="M 411.5,598.5 C 410.738,600.262 409.404,601.262 407.5,601.5C 408.262,599.738 409.596,598.738 411.5,598.5 Z"/></g>
<g><path style="opacity:0.604" fill="#8a8a8a" d="M 407.5,601.5 C 406.738,603.262 405.404,604.262 403.5,604.5C 404.262,602.738 405.596,601.738 407.5,601.5 Z"/></g>
<g><path style="opacity:0.929" fill="#777777" d="M 209.5,603.5 C 211.048,603.821 211.715,604.821 211.5,606.5C 210.599,605.71 209.932,604.71 209.5,603.5 Z"/></g>
<g><path style="opacity:0.627" fill="#878787" d="M 272.5,601.5 C 274.23,602.026 275.564,603.026 276.5,604.5C 274.368,604.446 273.035,603.446 272.5,601.5 Z"/></g>
<g><path style="opacity:0.753" fill="#767676" d="M 403.5,604.5 C 403.027,605.906 402.027,606.573 400.5,606.5C 400.973,605.094 401.973,604.427 403.5,604.5 Z"/></g>
<g><path style="opacity:0.859" fill="#808080" d="M 281.5,607.5 C 282.71,607.932 283.71,608.599 284.5,609.5C 282.821,609.715 281.821,609.048 281.5,607.5 Z"/></g>
<g><path style="opacity:0.204" fill="#b9b9b9" d="M 391.5,611.5 C 388.912,613.625 385.912,614.958 382.5,615.5C 385.088,613.375 388.088,612.042 391.5,611.5 Z"/></g>
<g><path style="opacity:0.341" fill="#aeaeae" d="M 294.5,614.5 C 296.553,614.402 298.22,615.069 299.5,616.5C 297.447,616.598 295.78,615.931 294.5,614.5 Z"/></g>
<g><path style="opacity:0.549" fill="#8f8f8f" d="M 299.5,616.5 C 302.785,616.928 305.785,617.928 308.5,619.5C 305.084,619.472 302.084,618.472 299.5,616.5 Z"/></g>
<g><path style="opacity:0.851" fill="#5c5c5c" d="M 380.5,616.5 C 377.916,618.472 374.916,619.472 371.5,619.5C 374.215,617.928 377.215,616.928 380.5,616.5 Z"/></g>
<g><path style="opacity:0.8" fill="#767676" d="M 309.5,619.5 C 312.373,619.802 315.039,620.469 317.5,621.5C 314.447,621.889 311.78,621.223 309.5,619.5 Z"/></g>
<g><path style="opacity:0.004" fill="#cdcdcd" d="M 221.5,620.5 C 222.906,620.973 223.573,621.973 223.5,623.5C 222.094,623.027 221.427,622.027 221.5,620.5 Z"/></g>
<g><path style="opacity:0.627" fill="#969696" d="M 447.5,656.5 C 445.192,652.953 444.025,648.953 444,644.5C 443.5,637.174 443.334,629.841 443.5,622.5C 444.833,622.167 444.833,621.833 443.5,621.5C 443.783,620.711 444.283,620.044 445,619.5C 445.333,629.833 445.667,640.167 446,650.5C 446.813,652.436 447.313,654.436 447.5,656.5 Z"/></g>
<g><path style="opacity:0.082" fill="#cacaca" d="M 317.5,621.5 C 331.504,622.747 345.504,622.747 359.5,621.5C 353.078,623.058 346.411,623.724 339.5,623.5C 331.938,623.679 324.605,623.012 317.5,621.5 Z"/></g>
<g><path style="opacity:0.008" fill="#b8b8b8" d="M 230.5,630.5 C 232.167,631.5 233.5,632.833 234.5,634.5C 232.167,634.167 230.833,632.833 230.5,630.5 Z"/></g>
<g><path style="opacity:0.71" fill="#9a9a9a" d="M 239.5,639.5 C 241.404,639.738 242.738,640.738 243.5,642.5C 241.596,642.262 240.262,641.262 239.5,639.5 Z"/></g>
<g><path style="opacity:0.282" fill="#a0a0a0" d="M 243.5,642.5 C 245.749,643.08 247.415,644.413 248.5,646.5C 246.251,645.92 244.585,644.587 243.5,642.5 Z"/></g>
<g><path style="opacity:0.569" fill="#797979" d="M 253.5,649.5 C 255.027,649.427 256.027,650.094 256.5,651.5C 254.973,651.573 253.973,650.906 253.5,649.5 Z"/></g>
<g><path style="opacity:0.404" fill="#9a9a9a" d="M 256.5,651.5 C 258.027,651.427 259.027,652.094 259.5,653.5C 257.973,653.573 256.973,652.906 256.5,651.5 Z"/></g>
<g><path style="opacity:0.212" fill="#bababa" d="M 261.5,654.5 C 263.027,654.427 264.027,655.094 264.5,656.5C 262.973,656.573 261.973,655.906 261.5,654.5 Z"/></g>
<g><path style="opacity:0.722" fill="#9c9c9c" d="M 450.5,661.5 C 452.749,662.08 454.415,663.413 455.5,665.5C 453.251,664.92 451.585,663.587 450.5,661.5 Z"/></g>
<g><path style="opacity:0.235" fill="#9b9b9b" d="M 275.5,661.5 C 278.649,661.415 281.316,662.415 283.5,664.5C 280.557,664.02 277.89,663.02 275.5,661.5 Z"/></g>
<g><path style="opacity:0.961" fill="#7d7d7d" d="M 286.5,665.5 C 290.534,665.517 294.201,666.517 297.5,668.5C 293.466,668.483 289.799,667.483 286.5,665.5 Z"/></g>
<g><path style="opacity:0.035" fill="#cfcfcf" d="M 383.5,664.5 C 379.622,667.013 375.289,668.346 370.5,668.5C 374.617,666.796 378.951,665.463 383.5,664.5 Z"/></g>
<g><path style="opacity:0.016" fill="#d5d5d5" d="M 478.5,666.5 C 476.898,668.074 474.898,668.741 472.5,668.5C 474.214,667.262 476.214,666.595 478.5,666.5 Z"/></g>
<g><path style="opacity:0.796" fill="#545454" d="M 303.5,669.5 C 308.1,669.28 312.433,669.946 316.5,671.5C 316.167,671.5 315.833,671.5 315.5,671.5C 311.236,671.656 307.236,670.989 303.5,669.5 Z"/></g>
<g><path style="opacity:0.398" fill="#b7b7b7" d="M 315.5,671.5 C 315.833,671.5 316.167,671.5 316.5,671.5C 328.837,672.77 341.17,672.77 353.5,671.5C 353.389,672.117 353.056,672.617 352.5,673C 340.5,673.667 328.5,673.667 316.5,673C 315.944,672.617 315.611,672.117 315.5,671.5 Z"/></g>
</svg>
