<?xml version="1.0" encoding="UTF-8"?>
<svg version="1.1" xmlns="http://www.w3.org/2000/svg" width="988" height="294">
<path d="M0 0 C128.4490161 0 128.4490161 0 151 22 C163.61248309 35.31203354 171.18918381 52.7848698 171.09765625 71.2734375 C171.09443359 72.42714844 171.09121094 73.58085938 171.08789062 74.76953125 C171.07951172 75.95933594 171.07113281 77.14914063 171.0625 78.375 C171.05798828 79.58800781 171.05347656 80.80101563 171.04882812 82.05078125 C171.03708354 85.03390507 171.0206584 88.01692679 171 91 C169.74445313 91.04898438 168.48890625 91.09796875 167.1953125 91.1484375 C151.00292878 91.52450876 151.00292878 91.52450876 136 97 C135.66602213 99.87413125 135.66602213 99.87413125 136 103 C142.96754017 109.88498638 157.84791799 108.47859203 167 109 C161.4603872 128.87743417 146.54745572 140.9970239 130 152 C130.59518433 153.22795288 130.59518433 153.22795288 131.20239258 154.48071289 C139.07167455 170.71997706 146.92546908 186.96592927 154.68847656 203.25634766 C156.08511492 206.17805687 157.49114185 209.09512907 158.8984375 212.01171875 C159.36660889 212.98544434 159.83478027 213.95916992 160.31713867 214.96240234 C161.21012434 216.81964707 162.10598087 218.67551503 163.00512695 220.52978516 C163.39917725 221.35140137 163.79322754 222.17301758 164.19921875 223.01953125 C164.72261841 224.10391479 164.72261841 224.10391479 165.2565918 225.21020508 C166 227 166 227 166 229 C166.66 229 167.32 229 168 229 C168.17958252 228.31542725 168.35916504 227.63085449 168.54418945 226.92553711 C170.20197168 220.71219715 172.04794179 214.62546061 174.1875 208.5625 C174.51065186 207.63872559 174.83380371 206.71495117 175.16674805 205.76318359 C179.81715156 192.55985395 184.64518386 179.41874575 189.4519043 166.27172852 C189.79430145 165.33401108 190.13669861 164.39629364 190.48947144 163.43016052 C191.13357226 161.66654362 191.77869808 159.90330057 192.42507935 158.14051819 C192.86689041 156.93038307 192.86689041 156.93038307 193.31762695 155.69580078 C193.60264069 154.92190002 193.88765442 154.14799927 194.18130493 153.35064697 C194.74712689 151.72605227 195.26536197 150.08438314 195.74423218 148.43206787 C196.10323105 147.20668304 196.10323105 147.20668304 196.46948242 145.95654297 C196.6698259 145.22031708 196.87016937 144.48409119 197.07658386 143.72555542 C198 142 198 142 199.96917725 141.21412659 C202.54969682 140.94204088 203.83662106 141.52613513 206.16015625 142.66015625 C207.34387817 143.22875366 207.34387817 143.22875366 208.55151367 143.80883789 C209.38013916 144.22254639 210.20876465 144.63625488 211.0625 145.0625 C211.90852783 145.4742749 212.75455566 145.8860498 213.6262207 146.31030273 C219.84952157 149.36215379 225.98514513 152.55328541 232 156 C231.46918903 163.7852275 229.27524938 172.03529278 223.36328125 177.38671875 C222.39777344 178.10472656 221.43226563 178.82273438 220.4375 179.5625 C214.61428728 183.91813754 212.28512919 187.85821337 211 195 C210.42837157 200.79250143 210.39224006 205.69200635 213 211 C213.66 211.33 214.32 211.66 215 212 C214.29051873 217.57163261 212.59702593 222.68372036 210.83984375 227.9921875 C210.4285321 229.25107788 210.4285321 229.25107788 210.00891113 230.53540039 C208.98984189 233.65015324 207.96322936 236.76243406 206.9375 239.875 C203.5034375 250.331875 203.5034375 250.331875 200 261 C177.23 261 154.46 261 131 261 C126.71 251.76 122.42 242.52 118 233 C115.97875 228.648125 113.9575 224.29625 111.875 219.8125 C103.23813208 201.21383832 94.62042693 182.60628579 86 164 C65.705 163.505 65.705 163.505 45 163 C45 195.34 45 227.68 45 261 C30.15 261 15.3 261 0 261 C0 174.87 0 88.74 0 0 Z M45 40 C45 67.39 45 94.78 45 123 C53.188125 123.0825 61.37625 123.165 69.8125 123.25 C72.37491455 123.28641602 74.9373291 123.32283203 77.57739258 123.36035156 C79.64143032 123.37204986 81.70547739 123.38223897 83.76953125 123.390625 C85.33689026 123.4213208 85.33689026 123.4213208 86.93591309 123.45263672 C97.65237418 123.45764617 107.13067002 120.47153967 115 113 C124.27036762 103.01983625 126.42957389 91.36754021 126.2109375 78.14453125 C125.82040072 67.62655613 122.52358795 58.01630237 115.3359375 50.1875 C105.41057642 41.12324331 93.73200571 39.66676367 80.7421875 39.8046875 C79.37139038 39.80770874 79.37139038 39.80770874 77.97290039 39.81079102 C74.60688145 39.82113939 71.24093489 39.84906052 67.875 39.875 C60.32625 39.91625 52.7775 39.9575 45 40 Z " fill="#454646" transform="translate(422,15)"/>
<path d="M0 0 C12.54 -0.04125 25.08 -0.0825 38 -0.125 C43.88972656 -0.15231201 43.88972656 -0.15231201 49.8984375 -0.18017578 C54.77734375 -0.18920898 54.77734375 -0.18920898 57.07763672 -0.19088745 C58.64861187 -0.19391337 60.21958305 -0.20085043 61.79052734 -0.21115112 C89.24852273 -0.38183633 115.75120679 4.28471675 137 23 C138.19109375 23.97839844 138.19109375 23.97839844 139.40625 24.9765625 C163.7628979 45.64964328 174.74827877 77.73033584 177.46484375 108.765625 C177.77891811 113.1750199 177.92298846 117.58072214 178 122 C178.01514648 122.73669922 178.03029297 123.47339844 178.04589844 124.23242188 C178.13939961 129.49129273 178.10811186 134.74162318 178 140 C177.98743164 140.72123047 177.97486328 141.44246094 177.96191406 142.18554688 C177.29910852 172.29585567 169.57246373 204.11258812 149 227 C148.48566406 227.65484375 147.97132813 228.3096875 147.44140625 228.984375 C132.73964843 247.31574385 108.83100972 257.81704508 86 261 C82.03044862 261.25120004 78.0791996 261.25440854 74.1027832 261.22705078 C72.96976273 261.22734283 71.83674225 261.22763489 70.66938782 261.22793579 C66.96310487 261.22655402 63.25702862 261.21104739 59.55078125 261.1953125 C56.96575531 261.19157827 54.38072794 261.18873324 51.79570007 261.18673706 C45.71156474 261.1799081 39.62751339 261.16418139 33.54340953 261.14403808 C26.60980212 261.12158664 19.676191 261.11066254 12.74255621 261.10064721 C-1.50500149 261.07981208 -15.75249814 261.04469423 -30 261 C-32.14466514 254.66737621 -34.27993769 248.33164244 -36.40869141 241.99365234 C-37.1340664 239.83764961 -37.86159326 237.68236962 -38.59130859 235.52783203 C-39.63945212 232.43188701 -40.67984462 229.33343038 -41.71875 226.234375 C-42.21091003 224.78886261 -42.21091003 224.78886261 -42.7130127 223.31414795 C-43.01332397 222.41351624 -43.31363525 221.51288452 -43.62304688 220.58496094 C-43.88952026 219.79442322 -44.15599365 219.0038855 -44.43054199 218.18939209 C-45 216 -45 216 -45 212 C-43.5625 210.4375 -43.5625 210.4375 -42 209 C-39.54947697 201.64843091 -40.59889708 193.73633596 -43.39453125 186.62109375 C-45.9229413 182.49320288 -49.59908781 180.11048501 -53.43359375 177.24609375 C-59.4910374 171.94467807 -60.53147453 163.58738159 -62 156 C-55.14293897 152.07067289 -48.12569257 148.53698976 -41 145.125 C-39.74449341 144.51700562 -39.74449341 144.51700562 -38.46362305 143.89672852 C-37.67125244 143.52088623 -36.87888184 143.14504395 -36.0625 142.7578125 C-34.99708984 142.24951904 -34.99708984 142.24951904 -33.91015625 141.73095703 C-32 141 -32 141 -29 141 C-26.9643527 144.91423091 -25.28251957 148.76695631 -23.87109375 152.9453125 C-23.48074951 154.09112793 -23.09040527 155.23694336 -22.68823242 156.41748047 C-22.06911987 158.25270264 -22.06911987 158.25270264 -21.4375 160.125 C-20.54954539 162.73528934 -19.65794908 165.34432651 -18.765625 167.953125 C-18.53836227 168.61839203 -18.31109955 169.28365906 -18.07695007 169.96908569 C-15.30071311 178.07557766 -12.39893148 186.13677671 -9.48803711 194.19580078 C-6.52525988 202.42843078 -3.76931498 210.69205506 -1 219 C-0.67 182.7 -0.34 146.4 0 109 C7.26 108.67 14.52 108.34 22 108 C31.22112172 106.09494483 31.22112172 106.09494483 34 103 C34.50014953 100.54258463 34.50014953 100.54258463 34 98 C25.45935573 90.34351934 9.76108578 92.48805429 0 92 C0 61.64 0 31.28 0 0 Z M45 40 C45 100.06 45 160.12 45 222 C81.17332815 223.0789881 81.17332815 223.0789881 110.7578125 206.39453125 C129.17481599 186.72619825 132.18797177 159.55206328 132.18530273 133.79858398 C132.18747306 131.46644371 132.20564156 129.13479044 132.22460938 126.80273438 C132.3182162 102.00854381 129.1238587 75.7506325 112.31640625 56.24609375 C92.85398965 37.3744419 71.96115432 40 45 40 Z " fill="#454646" transform="translate(795,15)"/>
<path d="M0 0 C2.3125 1.875 2.3125 1.875 4 4 C4 4.66 4 5.32 4 6 C5.29292969 5.82984375 6.58585938 5.6596875 7.91796875 5.484375 C12.76607186 4.9498041 17.44917809 4.97422657 22.3125 5.25 C23.54383667 5.31562134 23.54383667 5.31562134 24.80004883 5.38256836 C31.42725952 5.80964805 37.65902728 6.98759548 44 9 C44 9.99 44 10.98 44 12 C35.36630769 15.46102067 26.99436331 15.35401111 17.875 15.1875 C16.42709734 15.17241768 14.97917938 15.15873558 13.53125 15.14648438 C10.02051006 15.11377849 6.51035601 15.06219511 3 15 C3 16.32 3 17.64 3 19 C3.99 19.33 4.98 19.66 6 20 C7.60725635 23.21451269 7.05748185 26.43612536 7 30 C7.87366211 30.1343042 8.74732422 30.2686084 9.64746094 30.40698242 C12.71703515 30.94994745 15.63964582 31.65293865 18.640625 32.48828125 C19.70361816 32.78081787 20.76661133 33.07335449 21.86181641 33.37475586 C22.97991699 33.68421143 24.09801758 33.99366699 25.25 34.3125 C35.77557488 37.19177596 46.31741697 39.77791232 57 42 C57.11472656 41.2678125 57.22945312 40.535625 57.34765625 39.78125 C58.63643343 34.28658324 61.71339892 29.84719826 66.09375 26.30859375 C73.93588705 21.72094358 83.02994937 21.63469013 91.75 23.62890625 C98.41901989 26.14105394 101.76951162 31.03468733 105.16015625 37.0625 C106 39 106 39 106 42 C106.53791168 41.86441177 107.07582336 41.72882355 107.6300354 41.58912659 C113.2423836 40.1749546 118.85556591 38.76413081 124.46923828 37.35522461 C126.56255198 36.82938602 128.65565346 36.30270186 130.74853516 35.77514648 C133.76148613 35.01582559 136.77519395 34.2595758 139.7890625 33.50390625 C140.72054108 33.26845596 141.65201965 33.03300568 142.61172485 32.79042053 C147.05865077 31.67849831 151.45807442 30.66058397 156 30 C155.95359375 29.38511719 155.9071875 28.77023438 155.859375 28.13671875 C155.75068728 25.70289026 155.70716463 23.42019816 156 21 C158 19.0625 158 19.0625 160 18 C160 17.34 160 16.68 160 16 C159.07775635 15.98541748 158.1555127 15.97083496 157.20532227 15.95581055 C153.74398482 15.89431526 150.28338547 15.82008523 146.82250977 15.73754883 C145.33205243 15.70454205 143.84147738 15.67643673 142.35083008 15.65356445 C134.10901162 15.52370677 126.71853074 15.24578576 119 12 C119 11.01 119 10.02 119 9 C126.76192144 6.39631749 134.23858257 5.61494917 142.375 5.25 C143.80126709 5.18341187 143.80126709 5.18341187 145.25634766 5.11547852 C149.98517589 4.94483349 154.34637378 4.97277816 159 6 C159.1546875 5.071875 159.1546875 5.071875 159.3125 4.125 C160 2 160 2 163 0 C168.44444444 0.44444444 168.44444444 0.44444444 171 3 C171 3.99 171 4.98 171 6 C171.99257813 5.84015625 172.98515625 5.6803125 174.0078125 5.515625 C186.01839756 3.81618446 202.890747 3.4453735 214 9 C214 9.99 214 10.98 214 12 C204.3531118 15.07798195 195.24363023 15.36603789 185.25 15.1875 C183.76303455 15.17240967 182.2760541 15.15872904 180.7890625 15.14648438 C177.19238986 15.11386039 173.59629527 15.0623247 170 15 C170 16.32 170 17.64 170 19 C171.32 19.33 172.64 19.66 174 20 C175.43663962 27.0235715 175.88139597 35.2047702 172.640625 41.7421875 C171 44 171 44 168 46 C160.74082411 46.46090006 160.74082411 46.46090006 158.17211914 44.86279297 C156.00691027 43.74636634 156.00691027 43.74636634 153.72021484 44.65576172 C152.89215332 45.07615723 152.0640918 45.49655273 151.2109375 45.9296875 C150.27749512 46.39181641 149.34405273 46.85394531 148.38232422 47.33007812 C147.38990723 47.83990234 146.39749023 48.34972656 145.375 48.875 C143.30317264 49.90583808 141.23024088 50.93445926 139.15625 51.9609375 C138.12242187 52.47624023 137.08859375 52.99154297 136.0234375 53.52246094 C130.97583821 55.98919793 125.83186515 58.22583966 120.67333984 60.44873047 C116.93630246 62.07541998 113.4887523 63.90419276 110 66 C109.34 66 108.68 66 108 66 C107.03621658 69.10326782 106.56251806 71.76108734 107 75 C109.48296484 78.09772067 112.62027856 80.05308826 115.9375 82.1875 C117.63417669 83.34756542 119.33079185 84.50772084 121.02734375 85.66796875 C121.86048096 86.22299072 122.69361816 86.7780127 123.55200195 87.34985352 C136.31849756 95.95549267 136.31849756 95.95549267 139 104 C139.14328384 105.82962436 139.22040343 107.66501237 139.25 109.5 C139.28867187 110.93859375 139.28867187 110.93859375 139.328125 112.40625 C138.95389709 115.36443253 138.30935919 116.20113073 136 118 C133.078125 117.38671875 133.078125 117.38671875 130 116 C129.109375 113.20703125 129.109375 113.20703125 128.75 109.8125 C127.77282683 104.6963807 126.97918267 102.21112423 122.625 99.25 C120.75681686 98.15495303 118.88106162 97.07277364 117 96 C114.65815397 94.4161886 112.36299069 92.7681153 110.0625 91.125 C105.7919147 88.09286302 105.7919147 88.09286302 101 86 C98.33132666 87.40251338 98.33132666 87.40251338 95.5625 89.375 C89.36355196 93.60883934 84.47369942 94.86373412 77 94 C70.94003112 92.13850705 65.99205199 88.82369939 61 85 C60.05253906 85.69222656 60.05253906 85.69222656 59.0859375 86.3984375 C57.74402344 87.37683594 57.74402344 87.37683594 56.375 88.375 C55.38371094 89.10332031 54.39242187 89.83164063 53.37109375 90.58203125 C51.02571184 92.28668252 48.64214162 93.91415496 46.22265625 95.51171875 C45.59375488 95.93598145 44.96485352 96.36024414 44.31689453 96.79736328 C43.0873043 97.62507653 41.84758511 98.43798576 40.59716797 99.23388672 C36.1634368 102.25534595 34.9969807 104.80614847 34 110 C32.51627555 115.61695685 32.51627555 115.61695685 30.0625 117.4375 C28 118 28 118 25 117 C22.53778337 112.07556675 23.45655521 104.88394195 24.9375 99.75 C30.62037496 92.17283339 38.82412507 86.79139063 46.5625 81.5 C47.47580078 80.86835938 48.38910156 80.23671875 49.33007812 79.5859375 C51.5497631 78.05191438 53.77301913 76.52340263 56 75 C55.505 70.545 55.505 70.545 55 66 C53.78957031 65.63261719 53.78957031 65.63261719 52.5546875 65.2578125 C48.25985651 63.73810307 44.22780321 61.84639569 40.125 59.875 C39.29436035 59.47901611 38.4637207 59.08303223 37.60791016 58.67504883 C31.49949631 55.75127896 25.43836521 52.73870357 19.39306641 49.68701172 C14.65487221 47.30270079 9.87468828 45.08915212 5 43 C4.37738281 43.72703125 4.37738281 43.72703125 3.7421875 44.46875 C1.33673869 46.58295613 -0.87754837 46.53673855 -3.99609375 46.421875 C-7.42993086 45.69896193 -8.95926777 43.72097631 -11 41 C-12.44165776 37.11299868 -12.18384076 32.96603075 -12.1875 28.875 C-12.19974609 28.14667969 -12.21199219 27.41835937 -12.22460938 26.66796875 C-12.22985188 24.77717022 -12.12233385 22.88684419 -12 21 C-11.34 20.34 -10.68 19.68 -10 19 C-9.01 19 -8.02 19 -7 19 C-7 17.68 -7 16.36 -7 15 C-7.95777344 15.01047363 -8.91554688 15.02094727 -9.90234375 15.03173828 C-13.48807981 15.06819857 -17.07379978 15.09099426 -20.65966797 15.10986328 C-22.20559453 15.11986197 -23.75150246 15.13346538 -25.29736328 15.15087891 C-27.53162255 15.17539951 -29.76562975 15.18654451 -32 15.1953125 C-32.68054443 15.20563507 -33.36108887 15.21595764 -34.06225586 15.22659302 C-40.1113963 15.22797739 -45.28519681 13.9049344 -51 12 C-50.67 10.68 -50.34 9.36 -50 8 C-41.51705287 5.29267645 -33.17714475 4.83234734 -24.3125 4.875 C-23.49716797 4.87113281 -22.68183594 4.86726563 -21.84179688 4.86328125 C-17.44808913 4.87038506 -13.32537945 5.11955119 -9 6 C-8.896875 5.38125 -8.79375 4.7625 -8.6875 4.125 C-7.30029749 -0.16271686 -3.9822645 -0.58277041 0 0 Z " fill="#247F4A" transform="translate(612,105)"/>
<path d="M0 0 C0.85049423 0.00222061 1.70098846 0.00444122 2.57725525 0.00672913 C4.01863609 0.00684242 4.01863609 0.00684242 5.48913574 0.00695801 C7.05630592 0.01469994 7.05630592 0.01469994 8.65513611 0.02259827 C9.71913132 0.02401321 10.78312653 0.02542816 11.87936401 0.02688599 C15.29293069 0.03250388 18.70643286 0.04505941 22.11997986 0.05775452 C24.42792162 0.06276721 26.73586441 0.06733052 29.04380798 0.07142639 C34.71505412 0.08247912 40.38626238 0.09923465 46.05747986 0.12025452 C52.24464223 18.14753634 58.42440694 36.1773475 64.58695984 54.21305847 C65.18462594 55.96204635 65.78248061 57.71096981 66.38053894 59.45982361 C68.02361184 64.26497024 69.66336018 69.07122063 71.2964325 73.879776 C71.80565302 75.37889116 72.31562765 76.87775036 72.82633972 78.37635803 C73.54328776 80.48263683 74.25611234 82.59026314 74.96763611 84.69837952 C75.5749054 86.49130432 75.5749054 86.49130432 76.19444275 88.32044983 C77.05747986 91.12025452 77.05747986 91.12025452 77.05747986 93.12025452 C75.88830017 93.30201233 74.71912048 93.48377014 73.51451111 93.67103577 C71.96624338 93.92438867 70.41807116 94.17832577 68.86997986 94.43275452 C68.10105408 94.55070374 67.3321283 94.66865295 66.53990173 94.79017639 C62.10218149 95.53297077 58.79523424 96.44614968 55.05747986 99.12025452 C55.38747986 100.77025452 55.71747986 102.42025452 56.05747986 104.12025452 C65.32428717 107.73571343 74.23781955 109.17318068 84.05747986 110.12025452 C84.55247986 114.57525452 84.55247986 114.57525452 85.05747986 119.12025452 C84.08810486 119.36259827 83.11872986 119.60494202 82.11997986 119.85462952 C81.47963806 120.01479553 80.83929626 120.17496155 80.17955017 120.33998108 C78.75196844 120.69671227 77.32423108 121.0528212 75.89634705 121.40834045 C72.11808938 122.3500087 68.3429634 123.3017126 64.57310486 124.27650452 C63.85767517 124.45987366 63.14224548 124.6432428 62.40513611 124.83216858 C61.03175394 125.1844654 59.65931022 125.54044606 58.28794861 125.90052795 C55.05252362 126.72599316 52.43233048 127.12025452 49.05747986 127.12025452 C46.86415856 122.14959147 44.9482883 117.1340545 43.18247986 111.99525452 C42.57352192 110.23990144 41.96410467 108.48470768 41.35435486 106.72962952 C40.82745056 105.21079163 40.82745056 105.21079163 40.28990173 103.66127014 C37.97278031 97.00367721 35.63347432 90.35385854 33.29618835 83.70332336 C32.45194492 81.30065106 31.60841228 78.8977302 30.76499939 76.49476624 C27.55721492 67.35977533 24.32534301 58.23394137 21.05747986 49.12025452 C17.33687623 59.63095977 13.68764703 70.16057783 10.18247986 80.74525452 C7.26206732 89.55757598 4.28043843 98.34687222 1.24497986 107.12025452 C0.8719574 108.20000549 0.49893494 109.27975647 0.11460876 110.39222717 C-1.83053599 115.99830195 -3.82977038 121.5751195 -5.94252014 127.12025452 C-13.42796298 126.47932336 -20.5246897 124.95910399 -27.81752014 123.18275452 C-28.94416077 122.91785217 -30.07080139 122.65294983 -31.23158264 122.38002014 C-32.30923889 122.12027405 -33.38689514 121.86052795 -34.49720764 121.59291077 C-35.95876282 121.24111755 -35.95876282 121.24111755 -37.44984436 120.88221741 C-39.94252014 120.12025452 -39.94252014 120.12025452 -42.94252014 118.12025452 C-42.06752014 111.24525452 -42.06752014 111.24525452 -40.94252014 110.12025452 C-39.55249547 109.87204248 -38.15281614 109.67729244 -36.75111389 109.50697327 C-35.88808655 109.39289124 -35.0250592 109.2788092 -34.13587952 109.16127014 C-32.3270019 108.92923127 -30.51710065 108.705011 -28.70619202 108.48939514 C-23.13749675 107.73620132 -17.41914442 106.76724554 -12.94252014 103.12025452 C-12.18664186 101.05844646 -12.18664186 101.05844646 -11.94252014 99.12025452 C-16.77733141 96.33680639 -20.87960143 95.4686796 -26.31752014 94.93275452 C-27.05357483 94.85089905 -27.78962952 94.76904358 -28.54798889 94.68470764 C-30.34506639 94.48632896 -32.14366907 94.30184875 -33.94252014 94.12025452 C-33.34350115 88.78393564 -32.08901722 84.06193989 -30.31752014 79.00306702 C-29.9233918 77.85426308 -29.9233918 77.85426308 -29.52130127 76.68225098 C-28.66800743 74.20102718 -27.80553157 71.72311333 -26.94252014 69.24525452 C-26.34751499 67.52264118 -25.75287239 65.79990257 -25.15858459 64.07704163 C-21.20539715 52.64174942 -17.15346248 41.24436231 -13.01673889 29.87416077 C-10.39585724 22.65020759 -7.89689619 15.38377261 -5.41590881 8.11073303 C-4.94955017 6.75419617 -4.94955017 6.75419617 -4.47377014 5.37025452 C-4.20113342 4.57103577 -3.9284967 3.77181702 -3.64759827 2.94837952 C-2.57186276 0.15921488 -2.57186276 0.15921488 0 0 Z " fill="#247F4A" transform="translate(671.9425201416016,14.879745483398438)"/>
<path d="M0 0 C3.96 0 7.92 0 12 0 C15.62597379 10.60677978 19.24891525 21.21459135 22.86860657 31.82351685 C24.57587375 36.82732038 26.2836808 41.83093745 27.99316406 46.83398438 C37.12895159 73.57509016 46.13720314 100.35638736 55.05374146 127.17120361 C60.30722764 142.96891614 65.59116588 158.75466233 71 174.5 C76.70648646 191.13026898 82.33117201 207.78784597 87.91552734 224.45947266 C88.88348487 227.34858731 89.85429802 230.23671737 90.82763672 233.12402344 C91.97596546 236.53093373 93.11839291 239.93976668 94.25636673 243.35014915 C94.88548176 245.23080185 95.52048466 247.10948167 96.15560913 248.9881134 C96.5314212 250.11843491 96.90723328 251.24875641 97.29443359 252.41333008 C97.62526947 253.39997147 97.95610535 254.38661285 98.29696655 255.40315247 C99 258 99 258 99 262 C95.7 262 92.4 262 89 262 C87.22396271 256.82081542 85.450068 251.64090238 83.67773438 246.46044922 C83.08124535 244.71775943 82.48427962 242.9752327 81.88671875 241.23291016 C75.47211142 222.5273001 69.25382645 203.76147935 63 185 C25.38 184.67 -12.24 184.34 -51 184 C-51.99 187.63 -52.98 191.26 -54 195 C-54.75857604 197.43772535 -55.53791045 199.86915424 -56.34423828 202.29150391 C-56.55764862 202.93523956 -56.77105896 203.57897522 -56.99093628 204.24221802 C-57.68109426 206.3213337 -58.37551519 208.39899306 -59.0703125 210.4765625 C-59.55704941 211.93812335 -60.04360832 213.39974349 -60.52999878 214.86141968 C-61.54165486 217.89931391 -62.55544409 220.93648523 -63.57080078 223.97314453 C-64.87402309 227.87132028 -66.17177008 231.77129389 -67.46797371 235.67180824 C-68.46777441 238.67841434 -69.47041381 241.68406765 -70.47393417 244.68943405 C-70.95407117 246.12850951 -71.43331469 247.56788339 -71.91165543 249.00755692 C-72.57639646 251.00683159 -73.24494131 253.00479295 -73.91455078 255.00244141 C-74.29410919 256.13952545 -74.6736676 257.2766095 -75.06472778 258.44815063 C-76 261 -76 261 -77 262 C-78.68608966 262.07205511 -80.37500659 262.08386068 -82.0625 262.0625 C-82.98160156 262.05347656 -83.90070313 262.04445313 -84.84765625 262.03515625 C-85.91306641 262.01775391 -85.91306641 262.01775391 -87 262 C-86.38687385 256.16721482 -84.81836776 251.01231103 -82.88671875 245.48828125 C-82.56534943 244.55202911 -82.2439801 243.61577698 -81.91287231 242.65115356 C-81.21224537 240.61149434 -80.50888927 238.57277101 -79.8031311 236.53488159 C-77.86316634 230.93150003 -75.94435265 225.32087209 -74.0234375 219.7109375 C-73.6165419 218.52412888 -73.2096463 217.33732025 -72.79042053 216.11454773 C-68.26399875 202.89133832 -63.85712683 189.6288168 -59.45256805 176.36467743 C-53.46192123 158.32747142 -47.42963799 140.30649278 -41.25308228 122.33200073 C-35.32694196 105.07465654 -29.57387173 87.76015622 -23.81700897 70.44583893 C-15.99559847 46.9233271 -8.07209392 23.43784952 0 0 Z M6 15 C2.94331185 22.36278838 0.30400362 29.81712151 -2.19848633 37.38427734 C-2.59747635 38.58256165 -2.99646637 39.78084595 -3.407547 41.01544189 C-4.26918728 43.60327449 -5.12894507 46.19172171 -5.98719215 48.78068161 C-7.35153123 52.89621441 -8.72025861 57.01027986 -10.08952332 61.12417603 C-12.26142 67.651212 -14.43051253 74.17917572 -16.59835213 80.70756018 C-20.46386213 92.34838612 -24.33261089 103.98813453 -28.20467776 115.62678111 C-29.55769115 119.69409624 -30.90898597 123.76197685 -32.25889772 127.83032238 C-36.40538552 140.3234045 -40.55591005 152.81063759 -45.00693226 165.1993618 C-46.47137478 169.00419065 -46.47137478 169.00419065 -47 173 C-12.02 173 22.96 173 59 173 C57.69943629 167.14746329 56.37457558 161.7371672 54.40576172 156.14086914 C54.14959705 155.39869329 53.89343239 154.65651745 53.62950516 153.89185143 C53.07060413 152.27327212 52.50964236 150.65540324 51.94684219 149.03817558 C50.36365395 144.48548972 48.79910685 139.92639676 47.23339844 135.36767578 C46.89539026 134.3843587 46.55738209 133.40104162 46.20913124 132.38792706 C41.98396343 120.07404365 37.87140908 107.72259784 33.7578125 95.37109375 C33.36485741 94.19175892 32.97190231 93.01242409 32.56703949 91.79735184 C30.15976081 84.57216969 27.75471592 77.34624591 25.35046387 70.12005615 C23.27255526 63.87587766 21.19282791 57.63230498 19.11328125 51.38867188 C15.07380173 39.25968654 11.03617748 27.13008454 7 15 C6.67 15 6.34 15 6 15 Z " fill="#464646" transform="translate(296,15)"/>
<path d="M0 0 C3.3 0 6.6 0 10 0 C10.00238835 0.95930672 10.00477671 1.91861343 10.00723743 2.90699005 C10.06616585 26.30427315 10.14213056 49.70145437 10.23571491 73.09862518 C10.28058264 84.41355963 10.32001792 95.72846323 10.34643555 107.04345703 C10.3694889 116.91148202 10.40296829 126.77940868 10.44870156 136.64735556 C10.47253518 141.86701484 10.49132834 147.08657732 10.49761391 152.30628967 C10.50370967 157.23110767 10.5238695 162.1556783 10.55427551 167.08040428 C10.56298437 168.87650515 10.56679339 170.67263844 10.56500816 172.46875954 C10.55097669 193.12164958 13.7045244 211.79188516 26 229 C26.65548828 229.95132813 26.65548828 229.95132813 27.32421875 230.921875 C36.17646899 242.51220865 52.65860884 250.67803397 66.83056641 252.76855469 C88.03153955 255.03037356 108.00351503 252.41955171 125.3125 239.125 C140.19486551 226.47380253 147.29080764 210.0968151 150 191 C150.09934913 188.33387724 150.15462531 185.69321292 150.15821838 183.02737427 C150.16315636 182.24228922 150.16809434 181.45720417 150.17318195 180.64832866 C150.18849455 178.027436 150.19690059 175.40656771 150.20532227 172.78564453 C150.2149057 170.90300789 150.22491605 169.02037337 150.23532104 167.13774109 C150.26232576 162.03290095 150.28335931 156.9280516 150.30332303 151.82317972 C150.32520995 146.48601516 150.35258539 141.14887883 150.37937927 135.81173706 C150.42926958 125.70777686 150.47422199 115.60380096 150.51740164 105.4998101 C150.56680531 93.99563903 150.62171183 82.49149628 150.67708123 70.98735261 C150.79084505 47.32492817 150.89769628 23.66247656 151 0 C154.3 0 157.6 0 161 0 C161.04680228 24.53112399 161.0820291 49.06224125 161.10362434 73.59340096 C161.11391965 84.9846458 161.12794652 96.37586285 161.15087891 107.76708984 C161.17086632 117.70022662 161.18372911 127.63334326 161.18817699 137.56649959 C161.19077532 142.8218764 161.19684594 148.07719559 161.21146011 153.33255386 C161.22512871 158.28846324 161.22920405 163.24429176 161.22621536 168.2002182 C161.2267614 170.01008164 161.23068318 171.81994805 161.23841095 173.62979507 C161.34061461 198.82135344 157.23654739 222.55798887 140 242 C139.46890625 242.62519531 138.9378125 243.25039063 138.390625 243.89453125 C125.54882269 257.97601249 105.11976444 264.42501072 86.56640625 265.3203125 C62.68240068 266.01228277 41.03941215 260.44479319 22.96875 244.0234375 C2.42695622 222.91103834 -0.34944258 194.85498462 -0.22705078 166.99584961 C-0.22648497 165.16085313 -0.22680654 163.3258562 -0.22793579 161.49085999 C-0.22850366 156.56636303 -0.21684219 151.64196587 -0.20278788 146.71749187 C-0.19018503 141.5499122 -0.18910255 136.3823296 -0.18673706 131.21473694 C-0.18055012 121.45464072 -0.16417748 111.69458994 -0.14403808 101.93451363 C-0.12159176 90.81220922 -0.1106638 79.68990252 -0.10064721 68.56758106 C-0.07980842 45.71169563 -0.04468731 22.85585038 0 0 Z " fill="#464646" transform="translate(17,15)"/>
<path d="M0 0 C5.35526942 0.75133459 9.93346957 3.03127976 14.8125 5.25 C15.67681641 5.63285156 16.54113281 6.01570312 17.43164062 6.41015625 C22.91023863 8.88276123 27.99668978 11.66855541 33 15 C32.46918903 22.7852275 30.27524938 31.03529278 24.36328125 36.38671875 C23.39777344 37.10472656 22.43226563 37.82273438 21.4375 38.5625 C15.61428728 42.91813754 13.28512919 46.85821337 12 54 C11.42837157 59.79250143 11.39224006 64.69200635 14 70 C14.99 70.495 14.99 70.495 16 71 C15.29052027 76.5716205 13.59686925 81.68382 11.83984375 86.9921875 C11.53051407 87.93812775 11.22118439 88.88406799 10.90248108 89.8586731 C9.91820954 92.86546275 8.92794573 95.87023918 7.9375 98.875 C7.26718114 100.91914069 6.59725486 102.96341017 5.92773438 105.0078125 C4.2904297 110.00696827 2.64502982 115.0033546 1 120 C-13.19 120 -27.38 120 -42 120 C-40.2299509 114.09983635 -38.46177857 108.26624595 -36.5 102.4375 C-35.89671875 100.64119141 -35.89671875 100.64119141 -35.28125 98.80859375 C-34.96849121 97.8815564 -34.96849121 97.8815564 -34.64941406 96.93579102 C-34.20972732 95.62516086 -33.77430141 94.3130949 -33.34277344 92.99975586 C-31.09922784 86.18564919 -28.67462395 79.43891873 -26.25 72.6875 C-23.30440861 64.46836713 -20.37076352 56.24562523 -17.5 48 C-14.21187697 38.55560305 -10.84293563 29.14032531 -7.46289062 19.72851562 C-5.6767768 14.74500247 -3.90666249 9.76384464 -2.265625 4.73046875 C-1 1 -1 1 0 0 Z " fill="#247E49" transform="translate(621,156)"/>
<path d="M0 0 C2.0356473 3.91423091 3.71748043 7.76695631 5.12890625 11.9453125 C5.51916992 13.0909668 5.90943359 14.23662109 6.31152344 15.41699219 C6.7243457 16.64063477 7.13716797 17.86427734 7.5625 19.125 C8.45177723 21.73788664 9.34474695 24.34950398 10.23828125 26.9609375 C10.57948502 27.9594574 10.57948502 27.9594574 10.92758179 28.97814941 C13.30632163 35.92440123 15.77142353 42.83873946 18.25 49.75 C18.66644775 50.91321777 19.08289551 52.07643555 19.51196289 53.27490234 C21.00049226 57.43041733 22.4904619 61.58540115 23.98632812 65.73828125 C24.82740174 68.07439501 25.66416991 70.41200633 26.5 72.75 C26.9434375 73.98234375 27.386875 75.2146875 27.84375 76.484375 C28.86347957 79.5849041 29.66426983 82.67788379 30.42822266 85.84863281 C31.52547975 89.97716803 33.00274451 93.97902919 34.4375 98 C34.73720703 98.85078125 35.03691406 99.7015625 35.34570312 100.578125 C36.74530439 104.53708389 38.18266652 108.46850813 39.72265625 112.375 C41 116 41 116 41 120 C27.14 120 13.28 120 -1 120 C-3.14181714 113.66634075 -5.27992648 107.33167581 -7.40869141 100.99365234 C-8.1340664 98.83764961 -8.86159326 96.68236962 -9.59130859 94.52783203 C-10.63945212 91.43188701 -11.67984462 88.33343038 -12.71875 85.234375 C-13.04685669 84.27070007 -13.37496338 83.30702515 -13.7130127 82.31414795 C-14.01332397 81.41351624 -14.31363525 80.51288452 -14.62304688 79.58496094 C-14.88952026 78.79442322 -15.15599365 78.0038855 -15.43054199 77.18939209 C-16 75 -16 75 -16 71 C-14.5625 69.4375 -14.5625 69.4375 -13 68 C-10.54947697 60.64843091 -11.59889708 52.73633596 -14.39453125 45.62109375 C-16.9229413 41.49320288 -20.59908781 39.11048501 -24.43359375 36.24609375 C-30.4910374 30.94467807 -31.53147453 22.58738159 -33 15 C-26.14293897 11.07067289 -19.12569257 7.53698976 -12 4.125 C-11.16299561 3.71967041 -10.32599121 3.31434082 -9.46362305 2.89672852 C-8.67125244 2.52088623 -7.87888184 2.14504395 -7.0625 1.7578125 C-6.35222656 1.4189502 -5.64195312 1.08008789 -4.91015625 0.73095703 C-3 0 -3 0 0 0 Z " fill="#247E49" transform="translate(766,156)"/>
</svg>
